<?xml version="1.0" encoding="utf-8"?>
<svg width="2100" height="1000" viewBox="0 0 2100 1000" xmlns="http://www.w3.org/2000/svg" xmlns:bx="https://boxy-svg.com"><defs><marker id="arrow" viewBox="0 0 10 10" refX="9" refY="5" markerWidth="7" markerHeight="7" orient="auto-start-reverse"><path d="M 0 0 L 10 5 L 0 10 z" fill="#444444"/></marker><marker id="arrowSoft" viewBox="0 0 10 10" refX="9" refY="5" markerWidth="7" markerHeight="7" orient="auto-start-reverse"><path d="M 0 0 L 10 5 L 0 10 z" fill="#5f6368"/></marker><marker id="arrowPink" viewBox="0 0 10 10" refX="9" refY="5" markerWidth="7" markerHeight="7" orient="auto-start-reverse"><path d="M 0 0 L 10 5 L 0 10 z" fill="#b05a7a"/></marker><bx:export><bx:file format="svg"/><bx:file format="pdf" excluded="true"><bx:page href="#object-0"/></bx:file><bx:file format="png" href="#object-0" excluded="true"/><bx:file format="svg" href="#object-0" path="Untitled 2.svg" excluded="true"/><bx:file format="jpeg"/><bx:file format="png" path="Untitled 2.png"/><bx:file format="pdf" path="Untitled 2.pdf"><bx:page/></bx:file></bx:export></defs><rect width="100%" height="100%" fill="white" id="object-0"/><text x="1050.0" y="42" text-anchor="middle" font-family="Arial, Helvetica, sans-serif" font-size="24" font-weight="bold" fill="#202124" style="white-space: pre;">UML Component Diagram — Character KG Pipeline with Vertical Enrichment Bifurcation</text><rect x="540" y="76" width="790" height="150" rx="18" ry="18" fill="#ffffff" stroke="#dadce0" stroke-width="1.4" stroke-dasharray="7,5"/><text x="935" y="106" text-anchor="middle" font-family="Arial, Helvetica, sans-serif" font-size="20" font-weight="normal" fill="#202124" style="white-space: pre;">Model inputs</text><rect x="575" y="125" width="270" height="78" rx="16" ry="16" fill="#fce8e6" stroke="#2f3437" stroke-width="1.5"/><text x="710" y="149" text-anchor="middle" font-family="Arial, Helvetica, sans-serif" font-size="14" font-weight="bold" fill="#202124" style="white-space: pre;">sapienzanlp/</text><text x="710" y="169" text-anchor="middle" font-family="Arial, Helvetica, sans-serif" font-size="14" font-weight="bold" fill="#202124" style="white-space: pre;">maverick-mes-litbank</text><text x="710" y="190" text-anchor="middle" font-family="Arial, Helvetica, sans-serif" font-size="12" font-weight="normal" fill="#5f6368" style="white-space: pre;">entity extraction model</text><rect x="920" y="123" width="360" height="82" rx="16" ry="16" fill="#fce8e6" stroke="#2f3437" stroke-width="1.5"/><text x="1100" y="148" text-anchor="middle" font-family="Arial, Helvetica, sans-serif" font-size="14" font-weight="bold" fill="#202124" style="white-space: pre;">MoritzLaurer/</text><text x="1100" y="169" text-anchor="middle" font-family="Arial, Helvetica, sans-serif" font-size="14" font-weight="bold" fill="#202124" style="white-space: pre;">deberta-v3-large-zeroshot-v2.0</text><text x="1100" y="190" text-anchor="middle" font-family="Arial, Helvetica, sans-serif" font-size="12" font-weight="normal" fill="#5f6368" style="white-space: pre;">zero-shot classification model</text><rect x="480.425" y="310.213" width="1417.34" height="321.808" rx="18" ry="18" fill="#ffffff" stroke="#d93025" stroke-width="3.2" style=""/><text x="1052" y="330" text-anchor="middle" font-family="Arial, Helvetica, sans-serif" font-size="20" font-weight="normal" fill="#202124" style="white-space: pre;">Implemented NLP-to-KG pipeline</text><ellipse cx="108" cy="388" rx="62" ry="38" fill="#ffffff" stroke="#2f3437" stroke-width="1.5"/><text x="108" y="383" text-anchor="middle" font-family="Arial, Helvetica, sans-serif" font-size="16" font-weight="bold" fill="#202124" style="white-space: pre;">Notebook</text><text x="108" y="406" text-anchor="middle" font-family="Arial, Helvetica, sans-serif" font-size="14" font-weight="normal" fill="#202124" style="white-space: pre;">user</text><rect x="240" y="405" width="200" height="82" rx="16" ry="16" fill="#e8f0fe" stroke="#2f3437" stroke-width="1.5"/><rect x="253" y="418" width="18" height="18" fill="none" stroke="#2f3437" stroke-width="1.2"/><rect x="248" y="421" width="8" height="5" fill="#e8f0fe" stroke="#2f3437" stroke-width="1.0"/><rect x="248" y="428" width="8" height="5" fill="#e8f0fe" stroke="#2f3437" stroke-width="1.0"/><text x="340.0" y="430" text-anchor="middle" font-family="Arial, Helvetica, sans-serif" font-size="13" font-weight="bold" fill="#202124" style="white-space: pre;">«component»</text><text x="340.0" y="452" text-anchor="middle" font-family="Arial, Helvetica, sans-serif" font-size="16" font-weight="bold" fill="#202124" style="white-space: pre;">Pipeline orchestrator</text><text x="340.0" y="475" text-anchor="middle" font-family="Arial, Helvetica, sans-serif" font-size="12" font-weight="normal" fill="#202124" style="white-space: pre;">NLP_pipeline.ipynb</text><path d="M 55 518 C 55 500 200 500 200 518 L 200 562 C 200 580 55 580 55 562 Z" fill="#fff7e6" stroke="#2f3437" stroke-width="1.5"/><path d="M 55 518 C 55 536 200 536 200 518" fill="none" stroke="#2f3437" stroke-width="1.5"/><text x="127.5" y="546" text-anchor="middle" font-family="Arial, Helvetica, sans-serif" font-size="16" font-weight="bold" fill="#202124" style="white-space: pre;">Fantasy text</text><text x="127.5" y="568" text-anchor="middle" font-family="Arial, Helvetica, sans-serif" font-size="12" font-weight="normal" fill="#202124" style="white-space: pre;">.txt</text><path d="M 55 708 C 55 690 210 690 210 708 L 210 757 C 210 775 55 775 55 757 Z" fill="#fff7e6" stroke="#2f3437" stroke-width="1.5"/><path d="M 55 708 C 55 726 210 726 210 708" fill="none" stroke="#2f3437" stroke-width="1.5"/><text x="132.5" y="736" text-anchor="middle" font-family="Arial, Helvetica, sans-serif" font-size="16" font-weight="bold" fill="#202124" style="white-space: pre;">Extractive</text><text x="132.5" y="758" text-anchor="middle" font-family="Arial, Helvetica, sans-serif" font-size="12" font-weight="normal" fill="#202124" style="white-space: pre;">ontology .ttl</text><rect x="490" y="405" width="200" height="82" rx="16" ry="16" fill="#f8f9fa" stroke="#2f3437" stroke-width="1.5"/><rect x="503" y="418" width="18" height="18" fill="none" stroke="#2f3437" stroke-width="1.2"/><rect x="498" y="421" width="8" height="5" fill="#f8f9fa" stroke="#2f3437" stroke-width="1.0"/><rect x="498" y="428" width="8" height="5" fill="#f8f9fa" stroke="#2f3437" stroke-width="1.0"/><text x="590.0" y="430" text-anchor="middle" font-family="Arial, Helvetica, sans-serif" font-size="13" font-weight="bold" fill="#202124" style="white-space: pre;">«component»</text><text x="590.0" y="452" text-anchor="middle" font-family="Arial, Helvetica, sans-serif" font-size="16" font-weight="bold" fill="#202124" style="white-space: pre;">Text preprocessing</text><text x="590.0" y="475" text-anchor="middle" font-family="Arial, Helvetica, sans-serif" font-size="12" font-weight="normal" fill="#202124" style="white-space: pre;">tokenization + chunking</text><rect x="745" y="405" width="210" height="82" rx="16" ry="16" fill="#f8f9fa" stroke="#2f3437" stroke-width="1.5"/><rect x="758" y="418" width="18" height="18" fill="none" stroke="#2f3437" stroke-width="1.2"/><rect x="753" y="421" width="8" height="5" fill="#f8f9fa" stroke="#2f3437" stroke-width="1.0"/><rect x="753" y="428" width="8" height="5" fill="#f8f9fa" stroke="#2f3437" stroke-width="1.0"/><text x="850.0" y="430" text-anchor="middle" font-family="Arial, Helvetica, sans-serif" font-size="13" font-weight="bold" fill="#202124" style="white-space: pre;">«component»</text><text x="850.0" y="452" text-anchor="middle" font-family="Arial, Helvetica, sans-serif" font-size="16" font-weight="bold" fill="#202124" style="white-space: pre;">Entity extraction</text><text x="850.0" y="475" text-anchor="middle" font-family="Arial, Helvetica, sans-serif" font-size="12" font-weight="normal" fill="#202124" style="white-space: pre;">mentions + coreference</text><rect x="1010" y="405" width="180" height="82" rx="16" ry="16" fill="#f8f9fa" stroke="#2f3437" stroke-width="1.5"/><rect x="1023" y="418" width="18" height="18" fill="none" stroke="#2f3437" stroke-width="1.2"/><rect x="1018" y="421" width="8" height="5" fill="#f8f9fa" stroke="#2f3437" stroke-width="1.0"/><rect x="1018" y="428" width="8" height="5" fill="#f8f9fa" stroke="#2f3437" stroke-width="1.0"/><text x="1100.0" y="430" text-anchor="middle" font-family="Arial, Helvetica, sans-serif" font-size="13" font-weight="bold" fill="#202124" style="white-space: pre;">«component»</text><text x="1100.0" y="452" text-anchor="middle" font-family="Arial, Helvetica, sans-serif" font-size="16" font-weight="bold" fill="#202124" style="white-space: pre;">Entity typing</text><text x="1100.0" y="475" text-anchor="middle" font-family="Arial, Helvetica, sans-serif" font-size="12" font-weight="normal" fill="#202124" style="white-space: pre;">class assignment</text><rect x="1270" y="320" width="180" height="72" rx="16" ry="16" fill="#f8f9fa" stroke="#2f3437" stroke-width="1.5"/><rect x="1283" y="333" width="18" height="18" fill="none" stroke="#2f3437" stroke-width="1.2"/><rect x="1278" y="336" width="8" height="5" fill="#f8f9fa" stroke="#2f3437" stroke-width="1.0"/><rect x="1278" y="343" width="8" height="5" fill="#f8f9fa" stroke="#2f3437" stroke-width="1.0"/><text x="1360.0" y="345" text-anchor="middle" font-family="Arial, Helvetica, sans-serif" font-size="13" font-weight="bold" fill="#202124" style="white-space: pre;">«component»</text><text x="1360.0" y="367" text-anchor="middle" font-family="Arial, Helvetica, sans-serif" font-size="16" font-weight="bold" fill="#202124" style="white-space: pre;">OCEAN scoring</text><text x="1360.0" y="390" text-anchor="middle" font-family="Arial, Helvetica, sans-serif" font-size="12" font-weight="normal" fill="#202124" style="white-space: pre;">trait estimates</text><rect x="1255" y="525" width="210" height="72" rx="16" ry="16" fill="#f8f9fa" stroke="#2f3437" stroke-width="1.5"/><rect x="1268" y="538" width="18" height="18" fill="none" stroke="#2f3437" stroke-width="1.2"/><rect x="1263" y="541" width="8" height="5" fill="#f8f9fa" stroke="#2f3437" stroke-width="1.0"/><rect x="1263" y="548" width="8" height="5" fill="#f8f9fa" stroke="#2f3437" stroke-width="1.0"/><text x="1360.0" y="550" text-anchor="middle" font-family="Arial, Helvetica, sans-serif" font-size="13" font-weight="bold" fill="#202124" style="white-space: pre;">«component»</text><text x="1360.0" y="572" text-anchor="middle" font-family="Arial, Helvetica, sans-serif" font-size="16" font-weight="bold" fill="#202124" style="white-space: pre;">Relation extraction</text><text x="1360.0" y="595" text-anchor="middle" font-family="Arial, Helvetica, sans-serif" font-size="12" font-weight="normal" fill="#202124" style="white-space: pre;">relation assertions</text><rect x="1525" y="405" width="180" height="82" rx="16" ry="16" fill="#fff3cd" stroke="#2f3437" stroke-width="1.5"/><rect x="1538" y="418" width="18" height="18" fill="none" stroke="#2f3437" stroke-width="1.2"/><rect x="1533" y="421" width="8" height="5" fill="#fff3cd" stroke="#2f3437" stroke-width="1.0"/><rect x="1533" y="428" width="8" height="5" fill="#fff3cd" stroke="#2f3437" stroke-width="1.0"/><text x="1615.0" y="430" text-anchor="middle" font-family="Arial, Helvetica, sans-serif" font-size="13" font-weight="bold" fill="#202124" style="white-space: pre;">«component»</text><text x="1615.0" y="452" text-anchor="middle" font-family="Arial, Helvetica, sans-serif" font-size="16" font-weight="bold" fill="#202124" style="white-space: pre;">Annotation layer</text><text x="1615.0" y="475" text-anchor="middle" font-family="Arial, Helvetica, sans-serif" font-size="12" font-weight="normal" fill="#202124" style="white-space: pre;">symbolic state</text><rect x="1720" y="405" width="160" height="82" rx="16" ry="16" fill="#e6f4ea" stroke="#2f3437" stroke-width="1.5"/><rect x="1733" y="418" width="18" height="18" fill="none" stroke="#2f3437" stroke-width="1.2"/><rect x="1728" y="421" width="8" height="5" fill="#e6f4ea" stroke="#2f3437" stroke-width="1.0"/><rect x="1728" y="428" width="8" height="5" fill="#e6f4ea" stroke="#2f3437" stroke-width="1.0"/><text x="1800.0" y="430" text-anchor="middle" font-family="Arial, Helvetica, sans-serif" font-size="13" font-weight="bold" fill="#202124" style="white-space: pre;">«component»</text><text x="1800.0" y="452" text-anchor="middle" font-family="Arial, Helvetica, sans-serif" font-size="16" font-weight="bold" fill="#202124" style="white-space: pre;">ABox population</text><text x="1800.0" y="475" text-anchor="middle" font-family="Arial, Helvetica, sans-serif" font-size="12" font-weight="normal" fill="#202124" style="white-space: pre;">OWL assertions</text><path d="M 1930 423 C 1930 405 2080 405 2080 423 L 2080 469 C 2080 487 1930 487 1930 469 Z" fill="#fff7e6" stroke="#2f3437" stroke-width="1.5"/><path d="M 1930 423 C 1930 441 2080 441 2080 423" fill="none" stroke="#2f3437" stroke-width="1.5"/><text x="2005.0" y="451" text-anchor="middle" font-family="Arial, Helvetica, sans-serif" font-size="16" font-weight="bold" fill="#202124" style="white-space: pre;">Populated KG</text><text x="2005.0" y="473" text-anchor="middle" font-family="Arial, Helvetica, sans-serif" font-size="12" font-weight="normal" fill="#202124" style="white-space: pre;">TBox + ABox</text><path d="M 1930 558 C 1930 540 2080 540 2080 558 L 2080 604 C 2080 622 1930 622 1930 604 Z" fill="#fff7e6" stroke="#2f3437" stroke-width="1.5"/><path d="M 1930 558 C 1930 576 2080 576 2080 558" fill="none" stroke="#2f3437" stroke-width="1.5"/><text x="2005.0" y="586" text-anchor="middle" font-family="Arial, Helvetica, sans-serif" font-size="16" font-weight="bold" fill="#202124" style="white-space: pre;">KG</text><text x="2005.0" y="608" text-anchor="middle" font-family="Arial, Helvetica, sans-serif" font-size="12" font-weight="normal" fill="#202124" style="white-space: pre;">visualization .svg</text><rect x="660" y="705" width="245" height="82" rx="16" ry="16" fill="#e6f4ea" stroke="#2f3437" stroke-width="1.5"/><rect x="673" y="718" width="18" height="18" fill="none" stroke="#2f3437" stroke-width="1.2"/><rect x="668" y="721" width="8" height="5" fill="#e6f4ea" stroke="#2f3437" stroke-width="1.0"/><rect x="668" y="728" width="8" height="5" fill="#e6f4ea" stroke="#2f3437" stroke-width="1.0"/><text x="782.5" y="730" text-anchor="middle" font-family="Arial, Helvetica, sans-serif" font-size="13" font-weight="bold" fill="#202124" style="white-space: pre;">«component»</text><text x="782.5" y="752" text-anchor="middle" font-family="Arial, Helvetica, sans-serif" font-size="16" font-weight="bold" fill="#202124" style="white-space: pre;">Ontology manager</text><text x="782.5" y="775" text-anchor="middle" font-family="Arial, Helvetica, sans-serif" font-size="12" font-weight="normal" fill="#202124" style="white-space: pre;">class graph + router</text><rect x="990" y="815" width="760.851" height="130" rx="18" ry="18" fill="#fafafa" stroke="#bfc5cc" stroke-width="1.4" stroke-dasharray="7,5" style=""/><text x="1350" y="845" text-anchor="middle" font-family="Arial, Helvetica, sans-serif" font-size="20" font-weight="normal" fill="#202124" style="white-space: pre;">Downstream Stage 2 target</text><rect x="1030" y="870" width="230" height="60" rx="16" ry="16" fill="#eeeeee" stroke="#2f3437" stroke-width="1.5"/><rect x="1043" y="883" width="18" height="18" fill="none" stroke="#2f3437" stroke-width="1.2"/><rect x="1038" y="886" width="8" height="5" fill="#eeeeee" stroke="#2f3437" stroke-width="1.0"/><rect x="1038" y="893" width="8" height="5" fill="#eeeeee" stroke="#2f3437" stroke-width="1.0"/><text x="1145.0" y="895" text-anchor="middle" font-family="Arial, Helvetica, sans-serif" font-size="13" font-weight="bold" fill="#202124" style="white-space: pre;">«component»</text><text x="1145.0" y="917" text-anchor="middle" font-family="Arial, Helvetica, sans-serif" font-size="16" font-weight="bold" fill="#202124" style="white-space: pre;">Character-neighborhood</text><text x="1145.0" y="940" text-anchor="middle" font-family="Arial, Helvetica, sans-serif" font-size="12" font-weight="normal" fill="#202124" style="white-space: pre;">query</text><rect x="1310" y="870" width="225" height="60" rx="16" ry="16" fill="#eeeeee" stroke="#2f3437" stroke-width="1.5"/><rect x="1323" y="883" width="18" height="18" fill="none" stroke="#2f3437" stroke-width="1.2"/><rect x="1318" y="886" width="8" height="5" fill="#eeeeee" stroke="#2f3437" stroke-width="1.0"/><rect x="1318" y="893" width="8" height="5" fill="#eeeeee" stroke="#2f3437" stroke-width="1.0"/><text x="1422.5" y="895" text-anchor="middle" font-family="Arial, Helvetica, sans-serif" font-size="13" font-weight="bold" fill="#202124" style="white-space: pre;">«component»</text><text x="1422.5" y="917" text-anchor="middle" font-family="Arial, Helvetica, sans-serif" font-size="16" font-weight="bold" fill="#202124" style="white-space: pre;">VEsNA-compatible</text><text x="1422.5" y="940" text-anchor="middle" font-family="Arial, Helvetica, sans-serif" font-size="12" font-weight="normal" fill="#202124" style="white-space: pre;">compiler</text><path d="M 1580 883 C 1580 865 1740 865 1740 883 L 1740 917 C 1740 935 1580 935 1580 917 Z" fill="#e6f4ea" stroke="#2f3437" stroke-width="1.5"/><path d="M 1580 883 C 1580 901 1740 901 1740 883" fill="none" stroke="#2f3437" stroke-width="1.5"/><text x="1660.0" y="911" text-anchor="middle" font-family="Arial, Helvetica, sans-serif" font-size="16" font-weight="bold" fill="#202124" style="white-space: pre;">Agent package</text><text x="1660.0" y="933" text-anchor="middle" font-family="Arial, Helvetica, sans-serif" font-size="12" font-weight="normal" fill="#202124" style="white-space: pre;">.json / .jcm</text><path d="M 170 388 L 240 435" fill="none" stroke="#444444" stroke-width="1.7" marker-end="url(#arrow)"/><path d="M 440 446 L 490 446" fill="none" stroke="#444444" stroke-width="1.7" marker-end="url(#arrow)"/><text x="463" y="435" text-anchor="middle" font-family="Arial, Helvetica, sans-serif" font-size="11" font-weight="normal" fill="#5f6368" style="white-space: pre;">runs</text><path d="M 200 540 C 300 540 380 446 490 446" fill="none" stroke="#444444" stroke-width="1.7" marker-end="url(#arrow)"/><path d="M 690 446 L 745 446" fill="none" stroke="#444444" stroke-width="1.7" marker-end="url(#arrow)"/><path d="M 955 446 L 1010 446" fill="none" stroke="#444444" stroke-width="1.7" marker-end="url(#arrow)"/><path d="M 1190 446 L 1225 446" fill="none" stroke="#444444" stroke-width="2.0"/><path d="M 1225 356 L 1225 561" fill="none" stroke="#444444" stroke-width="2.0"/><circle cx="1225" cy="446" r="4.5" fill="#444444"/><path d="M 1225 356 L 1270 356" fill="none" stroke="#444444" stroke-width="1.9" marker-end="url(#arrow)"/><path d="M 1225 561 L 1255 561" fill="none" stroke="#444444" stroke-width="1.9" marker-end="url(#arrow)"/><path d="M 1225 446 L 1525 446" fill="none" stroke="#444444" stroke-width="1.9" marker-end="url(#arrow)"/><path d="M 1450 356 C 1490 356 1490 420 1525 428" fill="none" stroke="#444444" stroke-width="1.7" marker-end="url(#arrow)"/><path d="M 1465 561 C 1500 561 1500 472 1525 464" fill="none" stroke="#444444" stroke-width="1.7" marker-end="url(#arrow)"/><path d="M 1705 446 L 1720 446" fill="none" stroke="#444444" stroke-width="1.7" marker-end="url(#arrow)"/><path d="M 1880 446 L 1930 446" fill="none" stroke="#444444" stroke-width="1.7" marker-end="url(#arrow)"/><path d="M 2005 487 L 2005 540" fill="none" stroke="#444444" stroke-width="1.7" marker-end="url(#arrow)"/><path d="M 710 203 C 700 275 850 330 850 405" fill="none" stroke="#5f6368" stroke-width="1.6" stroke-dasharray="7,5" marker-end="url(#arrowSoft)"/><path d="M 1015 205 C 980 280 1080 345 1080 405" fill="none" stroke="#5f6368" stroke-width="1.6" stroke-dasharray="7,5" marker-end="url(#arrowSoft)"/><path d="M 1100 205 C 1120 260 1290 260 1350 320" fill="none" stroke="#5f6368" stroke-width="1.6" stroke-dasharray="7,5" marker-end="url(#arrowSoft)"/><path d="M 1205 205 C 1325 300 1375 420 1360 525" fill="none" stroke="#5f6368" stroke-width="1.6" stroke-dasharray="7,5" marker-end="url(#arrowSoft)"/><text x="1185" y="265" text-anchor="middle" font-family="Arial, Helvetica, sans-serif" font-size="11" font-weight="normal" fill="#5f6368" style="white-space: pre;">zero-shot support for enrichment nodes</text><path d="M 210 735 L 660 746" fill="none" stroke="#5f6368" stroke-width="1.6" stroke-dasharray="7,5" marker-end="url(#arrowSoft)"/><path d="M 760 705 C 760 620 1040 600 1065 487" fill="none" stroke="#b05a7a" stroke-width="1.7" stroke-dasharray="7,5" marker-end="url(#arrowPink)"/><path d="M 835 705 C 910 650 1115 625 1260 570" fill="none" stroke="#b05a7a" stroke-width="1.7" stroke-dasharray="7,5" marker-end="url(#arrowPink)"/><path d="M 905 745 C 1115 745 1725 705 1800 487" fill="none" stroke="#b05a7a" stroke-width="1.7" stroke-dasharray="7,5" marker-end="url(#arrowPink)"/><text x="938" y="620" text-anchor="middle" font-family="Arial, Helvetica, sans-serif" font-size="11" font-weight="normal" fill="#b05a7a" style="white-space: pre;">class candidates</text><text x="1145" y="621" text-anchor="middle" font-family="Arial, Helvetica, sans-serif" font-size="11" font-weight="normal" fill="#b05a7a" style="white-space: pre;">relation schema</text><text x="1465" y="721" text-anchor="middle" font-family="Arial, Helvetica, sans-serif" font-size="11" font-weight="normal" fill="#b05a7a" style="white-space: pre;">OWL mapping</text><path d="M 1930 451 C 1840 455 1770 765 1145 815 L 1145 870" fill="none" stroke="#5f6368" stroke-width="1.6" stroke-dasharray="7,5" marker-end="url(#arrowSoft)"/><path d="M 1260 900 L 1310 900" fill="none" stroke="#444444" stroke-width="1.7" marker-end="url(#arrow)"/><path d="M 1535 900 L 1580 900" fill="none" stroke="#444444" stroke-width="1.7" marker-end="url(#arrow)"/></svg>