<?xml version="1.0" encoding="UTF-8" standalone="no"?>
<!DOCTYPE svg PUBLIC "-//W3C//DTD SVG 1.1//EN"
 "http://www.w3.org/Graphics/SVG/1.1/DTD/svg11.dtd">
<!-- Generated by graphviz version 15.1.0 (20260618.0150)
 -->
<!-- Title: knowledge_graph Pages: 1 -->
<svg width="730pt" height="684pt"
 viewBox="0.00 0.00 730.00 684.00" xmlns="http://www.w3.org/2000/svg" xmlns:xlink="http://www.w3.org/1999/xlink">
<g id="graph0" class="graph" transform="scale(1 1) rotate(0) translate(25.2 658.54)">
<title>knowledge_graph</title>
<text xml:space="preserve" text-anchor="middle" x="340.02" y="-608.44" font-family="Helvetica,sans-Serif" font-size="22.00">Narrative Knowledge Graph</text>
<!-- n_8c65b09a2846c4fb&#45;&gt;n_3364b3cd09f8c472 -->
<g id="edge5" class="edge">
<title>n_8c65b09a2846c4fb&#45;&gt;n_3364b3cd09f8c472</title>
<path fill="none" stroke="#6b7280" stroke-width="1.05" d="M331.08,-562.51C333.54,-509.93 340.52,-361.11 343.37,-300.15"/>
<polygon fill="#6b7280" stroke="#6b7280" stroke-width="1.05" points="345.64,-300.34 343.67,-293.74 341.1,-300.12 345.64,-300.34"/>
<text xml:space="preserve" text-anchor="middle" x="300.29" y="-429.19" font-family="Helvetica,sans-Serif" font-size="9.00">owl:onDataRange</text>
</g>
<!-- n_8506aa33304f7443&#45;&gt;n_3364b3cd09f8c472 -->
<g id="edge2" class="edge">
<title>n_8506aa33304f7443&#45;&gt;n_3364b3cd09f8c472</title>
<path fill="none" stroke="#6b7280" stroke-width="1.05" d="M187.17,-37.71C217.59,-83.28 294.19,-198.06 328.07,-248.82"/>
<polygon fill="#6b7280" stroke="#6b7280" stroke-width="1.05" points="325.98,-249.79 331.48,-253.93 329.77,-247.26 325.98,-249.79"/>
<text xml:space="preserve" text-anchor="middle" x="222.7" y="-148.52" font-family="Helvetica,sans-Serif" font-size="9.00">owl:onDataRange</text>
</g>
<!-- n_e739f10d2a9a1d22&#45;&gt;n_3364b3cd09f8c472 -->
<g id="edge1" class="edge">
<title>n_e739f10d2a9a1d22&#45;&gt;n_3364b3cd09f8c472</title>
<path fill="none" stroke="#6b7280" stroke-width="1.05" d="M97.36,-343.28C154.98,-327.04 249.69,-300.36 303.64,-285.16"/>
<polygon fill="#6b7280" stroke="#6b7280" stroke-width="1.05" points="304.12,-287.39 309.76,-283.43 302.89,-283.01 304.12,-287.39"/>
<text xml:space="preserve" text-anchor="middle" x="167.4" y="-315.04" font-family="Helvetica,sans-Serif" font-size="9.00">owl:onDataRange</text>
</g>
<!-- n_c048b76a2db63dbf&#45;&gt;n_3364b3cd09f8c472 -->
<g id="edge3" class="edge">
<title>n_c048b76a2db63dbf&#45;&gt;n_3364b3cd09f8c472</title>
<path fill="none" stroke="#6b7280" stroke-width="1.05" d="M521.71,-54.13C487.04,-97.1 403,-201.26 364.49,-248.98"/>
<polygon fill="#6b7280" stroke="#6b7280" stroke-width="1.05" points="362.9,-247.33 360.59,-253.82 366.44,-250.19 362.9,-247.33"/>
<text xml:space="preserve" text-anchor="middle" x="403.53" y="-156.54" font-family="Helvetica,sans-Serif" font-size="9.00">owl:onDataRange</text>
</g>
<!-- n_f193be65c9cff85f&#45;&gt;n_3364b3cd09f8c472 -->
<g id="edge4" class="edge">
<title>n_f193be65c9cff85f&#45;&gt;n_3364b3cd09f8c472</title>
<path fill="none" stroke="#6b7280" stroke-width="1.05" d="M582.59,-365.1C527.05,-343.75 437.51,-309.33 385.55,-289.35"/>
<polygon fill="#6b7280" stroke="#6b7280" stroke-width="1.05" points="386.53,-287.29 379.65,-287.08 384.9,-291.54 386.53,-287.29"/>
<text xml:space="preserve" text-anchor="middle" x="443.09" y="-327.69" font-family="Helvetica,sans-Serif" font-size="9.00">owl:onDataRange</text>
</g>
<!-- n_8c65b09a2846c4fb -->
<g id="node1" class="node">
<title>n_8c65b09a2846c4fb</title>
<path fill="#eaf6ea" stroke="#5f8d5a" stroke-width="1.35" d="M366.64,-599.84C366.64,-599.84 293.74,-599.84 293.74,-599.84 287.74,-599.84 281.74,-593.84 281.74,-587.84 281.74,-587.84 281.74,-574.76 281.74,-574.76 281.74,-568.76 287.74,-562.76 293.74,-562.76 293.74,-562.76 366.64,-562.76 366.64,-562.76 372.64,-562.76 378.64,-568.76 378.64,-574.76 378.64,-574.76 378.64,-587.84 378.64,-587.84 378.64,-593.84 372.64,-599.84 366.64,-599.84"/>
<text xml:space="preserve" text-anchor="middle" x="330.19" y="-584.35" font-family="Helvetica,sans-Serif" font-size="11.00">blank:n2ed1040</text>
<text xml:space="preserve" text-anchor="middle" x="330.19" y="-570.85" font-family="Helvetica,sans-Serif" font-size="11.00">«owl:Restriction»</text>
</g>
<!-- n_8506aa33304f7443 -->
<g id="node2" class="node">
<title>n_8506aa33304f7443</title>
<path fill="#eaf6ea" stroke="#5f8d5a" stroke-width="1.35" d="M210.82,-37.08C210.82,-37.08 137.92,-37.08 137.92,-37.08 131.92,-37.08 125.92,-31.08 125.92,-25.08 125.92,-25.08 125.92,-12 125.92,-12 125.92,-6 131.92,0 137.92,0 137.92,0 210.82,0 210.82,0 216.82,0 222.82,-6 222.82,-12 222.82,-12 222.82,-25.08 222.82,-25.08 222.82,-31.08 216.82,-37.08 210.82,-37.08"/>
<text xml:space="preserve" text-anchor="middle" x="174.37" y="-21.59" font-family="Helvetica,sans-Serif" font-size="11.00">blank:n2ed1040</text>
<text xml:space="preserve" text-anchor="middle" x="174.37" y="-8.09" font-family="Helvetica,sans-Serif" font-size="11.00">«owl:Restriction»</text>
</g>
<!-- n_e739f10d2a9a1d22 -->
<g id="node3" class="node">
<title>n_e739f10d2a9a1d22</title>
<path fill="#eaf6ea" stroke="#5f8d5a" stroke-width="1.35" d="M84.9,-375.6C84.9,-375.6 12,-375.6 12,-375.6 6,-375.6 0,-369.6 0,-363.6 0,-363.6 0,-350.52 0,-350.52 0,-344.52 6,-338.52 12,-338.52 12,-338.52 84.9,-338.52 84.9,-338.52 90.9,-338.52 96.9,-344.52 96.9,-350.52 96.9,-350.52 96.9,-363.6 96.9,-363.6 96.9,-369.6 90.9,-375.6 84.9,-375.6"/>
<text xml:space="preserve" text-anchor="middle" x="48.45" y="-360.11" font-family="Helvetica,sans-Serif" font-size="11.00">blank:n2ed1040</text>
<text xml:space="preserve" text-anchor="middle" x="48.45" y="-346.61" font-family="Helvetica,sans-Serif" font-size="11.00">«owl:Restriction»</text>
</g>
<!-- n_c048b76a2db63dbf -->
<g id="node4" class="node">
<title>n_c048b76a2db63dbf</title>
<path fill="#eaf6ea" stroke="#5f8d5a" stroke-width="1.35" d="M573.59,-53.55C573.59,-53.55 500.69,-53.55 500.69,-53.55 494.69,-53.55 488.69,-47.55 488.69,-41.55 488.69,-41.55 488.69,-28.47 488.69,-28.47 488.69,-22.47 494.69,-16.47 500.69,-16.47 500.69,-16.47 573.59,-16.47 573.59,-16.47 579.59,-16.47 585.59,-22.47 585.59,-28.47 585.59,-28.47 585.59,-41.55 585.59,-41.55 585.59,-47.55 579.59,-53.55 573.59,-53.55"/>
<text xml:space="preserve" text-anchor="middle" x="537.14" y="-38.06" font-family="Helvetica,sans-Serif" font-size="11.00">blank:n2ed1040</text>
<text xml:space="preserve" text-anchor="middle" x="537.14" y="-24.56" font-family="Helvetica,sans-Serif" font-size="11.00">«owl:Restriction»</text>
</g>
<!-- n_f193be65c9cff85f -->
<g id="node5" class="node">
<title>n_f193be65c9cff85f</title>
<path fill="#eaf6ea" stroke="#5f8d5a" stroke-width="1.35" d="M668.05,-402.48C668.05,-402.48 595.15,-402.48 595.15,-402.48 589.15,-402.48 583.15,-396.48 583.15,-390.48 583.15,-390.48 583.15,-377.4 583.15,-377.4 583.15,-371.4 589.15,-365.4 595.15,-365.4 595.15,-365.4 668.05,-365.4 668.05,-365.4 674.05,-365.4 680.05,-371.4 680.05,-377.4 680.05,-377.4 680.05,-390.48 680.05,-390.48 680.05,-396.48 674.05,-402.48 668.05,-402.48"/>
<text xml:space="preserve" text-anchor="middle" x="631.6" y="-386.99" font-family="Helvetica,sans-Serif" font-size="11.00">blank:n2ed1040</text>
<text xml:space="preserve" text-anchor="middle" x="631.6" y="-373.49" font-family="Helvetica,sans-Serif" font-size="11.00">«owl:Restriction»</text>
</g>
<!-- n_3364b3cd09f8c472 -->
<g id="node6" class="node">
<title>n_3364b3cd09f8c472</title>
<path fill="#e8f1fa" stroke="#5b7c99" stroke-width="1.35" d="M365.69,-291.61C365.69,-291.61 323.54,-291.61 323.54,-291.61 317.54,-291.61 311.54,-285.61 311.54,-279.61 311.54,-279.61 311.54,-267.61 311.54,-267.61 311.54,-261.61 317.54,-255.61 323.54,-255.61 323.54,-255.61 365.69,-255.61 365.69,-255.61 371.69,-255.61 377.69,-261.61 377.69,-267.61 377.69,-267.61 377.69,-279.61 377.69,-279.61 377.69,-285.61 371.69,-291.61 365.69,-291.61"/>
<text xml:space="preserve" text-anchor="middle" x="344.62" y="-269.91" font-family="Helvetica,sans-Serif" font-size="11.00">xsd:double</text>
</g>
<!-- legend_021493f340d3 -->
<g id="node7" class="node">
<title>legend_021493f340d3</title>
<path fill="#e8f1fa" stroke="#5b7c99" stroke-width="1.35" d="M263.65,-487C263.65,-487 217,-487 217,-487 211,-487 205,-481 205,-475 205,-475 205,-463 205,-463 205,-457 211,-451 217,-451 217,-451 263.65,-451 263.65,-451 269.65,-451 275.65,-457 275.65,-463 275.65,-463 275.65,-475 275.65,-475 275.65,-481 269.65,-487 263.65,-487"/>
<text xml:space="preserve" text-anchor="middle" x="240.32" y="-465.5" font-family="Helvetica,sans-Serif" font-size="10.00">Resource (1)</text>
</g>
<!-- legend_2b297a15bf5e -->
<g id="node8" class="node">
<title>legend_2b297a15bf5e</title>
<path fill="#eaf6ea" stroke="#5f8d5a" stroke-width="1.35" d="M491.9,-446C491.9,-446 422,-446 422,-446 416,-446 410,-440 410,-434 410,-434 410,-422 410,-422 410,-416 416,-410 422,-410 422,-410 491.9,-410 491.9,-410 497.9,-410 503.9,-416 503.9,-422 503.9,-422 503.9,-434 503.9,-434 503.9,-440 497.9,-446 491.9,-446"/>
<text xml:space="preserve" text-anchor="middle" x="456.95" y="-424.5" font-family="Helvetica,sans-Serif" font-size="10.00">owl:Restriction (5)</text>
</g>
</g>
</svg>
