<?xml version="1.0" encoding="UTF-8" standalone="no"?>
<!DOCTYPE svg PUBLIC "-//W3C//DTD SVG 1.1//EN"
 "http://www.w3.org/Graphics/SVG/1.1/DTD/svg11.dtd">
<!-- Generated by graphviz version 15.1.0 (20260618.0150)
 -->
<!-- Title: knowledge_graph Pages: 1 -->
<svg width="1732pt" height="1442pt"
 viewBox="0.00 0.00 1732.00 1442.00" xmlns="http://www.w3.org/2000/svg" xmlns:xlink="http://www.w3.org/1999/xlink">
<g id="graph0" class="graph" transform="scale(1 1) rotate(0) translate(25.2 1416.38)">
<title>knowledge_graph</title>
<text xml:space="preserve" text-anchor="middle" x="840.78" y="-1366.28" font-family="Helvetica,sans-Serif" font-size="22.00">Narrative Knowledge Graph</text>
<!-- n_7090f20bd2bcefa2&#45;&gt;n_0b3b7dc6bc359817 -->
<g id="edge26" class="edge">
<title>n_7090f20bd2bcefa2&#45;&gt;n_0b3b7dc6bc359817</title>
<path fill="none" stroke="#6b7280" stroke-width="1.05" d="M704.79,-736.4C735.97,-747.07 774.88,-760.39 807.19,-771.45"/>
<polygon fill="#6b7280" stroke="#6b7280" stroke-width="1.05" points="806.44,-773.6 813.33,-773.55 807.92,-769.29 806.44,-773.6"/>
<text xml:space="preserve" text-anchor="middle" x="736.83" y="-757.14" font-family="Helvetica,sans-Serif" font-size="9.00">usesObject</text>
</g>
<!-- n_7090f20bd2bcefa2&#45;&gt;n_3345bed2b2b72da6 -->
<g id="edge6" class="edge">
<title>n_7090f20bd2bcefa2&#45;&gt;n_3345bed2b2b72da6</title>
<path fill="none" stroke="#6b7280" stroke-width="1.05" d="M629.34,-736.43C564.26,-800.86 353.8,-1009.21 281.82,-1080.46"/>
<polygon fill="#6b7280" stroke="#6b7280" stroke-width="1.05" points="280.63,-1078.44 277.61,-1084.63 283.83,-1081.68 280.63,-1078.44"/>
<text xml:space="preserve" text-anchor="middle" x="405.98" y="-913.1" font-family="Helvetica,sans-Serif" font-size="9.00">leavesPlace / travelsTo</text>
</g>
<!-- n_7090f20bd2bcefa2&#45;&gt;n_9a57886d893e266e -->
<g id="edge27" class="edge">
<title>n_7090f20bd2bcefa2&#45;&gt;n_9a57886d893e266e</title>
<path fill="none" stroke="#6b7280" stroke-width="1.05" d="M738.84,-729.67C825.45,-742.08 946.18,-760.72 966.31,-770.83 977.34,-776.36 998.49,-797.22 1014.93,-814.46"/>
<polygon fill="#6b7280" stroke="#6b7280" stroke-width="1.05" points="1013.09,-815.82 1019.21,-818.98 1016.4,-812.7 1013.09,-815.82"/>
<text xml:space="preserve" text-anchor="middle" x="818.32" y="-743.61" font-family="Helvetica,sans-Serif" font-size="9.00">:loves / deceives / guides / trusts</text>
</g>
<!-- n_7090f20bd2bcefa2&#45;&gt;n_01d532d0546308bf -->
<g id="edge8" class="edge">
<title>n_7090f20bd2bcefa2&#45;&gt;n_01d532d0546308bf</title>
<path fill="none" stroke="#6b7280" stroke-width="1.05" d="M739.05,-698.09C822.4,-680.44 945.18,-654.44 1026.34,-637.25"/>
<polygon fill="#6b7280" stroke="#6b7280" stroke-width="1.05" points="1026.62,-639.52 1032.51,-635.94 1025.68,-635.07 1026.62,-639.52"/>
<text xml:space="preserve" text-anchor="middle" x="839.64" y="-668.81" font-family="Helvetica,sans-Serif" font-size="9.00">leavesPlace / travelsTo</text>
</g>
<!-- n_7090f20bd2bcefa2&#45;&gt;n_e0e2c278bd96942f -->
<g id="edge30" class="edge">
<title>n_7090f20bd2bcefa2&#45;&gt;n_e0e2c278bd96942f</title>
<path fill="none" stroke="#6b7280" stroke-width="1.05" d="M655.22,-698.03C667.2,-630.85 679.23,-406.19 675.35,-328.57"/>
<polygon fill="#6b7280" stroke="#6b7280" stroke-width="1.05" points="677.63,-328.62 674.96,-322.27 673.09,-328.9 677.63,-328.62"/>
<text xml:space="preserve" text-anchor="middle" x="659.63" y="-511.76" font-family="Helvetica,sans-Serif" font-size="9.00">:loves</text>
</g>
<!-- n_7090f20bd2bcefa2&#45;&gt;n_f3478339ce530c39 -->
<g id="edge37" class="edge">
<title>n_7090f20bd2bcefa2&#45;&gt;n_f3478339ce530c39</title>
<path fill="none" stroke="#6b7280" stroke-width="1.05" d="M635.91,-736.2C600.25,-807.48 506.81,-1058.75 484.83,-1141.89"/>
<polygon fill="#6b7280" stroke="#6b7280" stroke-width="1.05" points="482.65,-1141.23 483.26,-1148.09 487.06,-1142.34 482.65,-1141.23"/>
<text xml:space="preserve" text-anchor="middle" x="530.04" y="-942.81" font-family="Helvetica,sans-Serif" font-size="9.00">usesObject</text>
</g>
<!-- n_7090f20bd2bcefa2&#45;&gt;n_a79bd3704523450e -->
<g id="edge39" class="edge">
<title>n_7090f20bd2bcefa2&#45;&gt;n_a79bd3704523450e</title>
<path fill="none" stroke="#6b7280" stroke-width="1.05" d="M660.84,-698.09C690.35,-652.38 769.87,-534.54 855.37,-453.56 910.12,-401.7 984.09,-354.03 1029.13,-327.03"/>
<polygon fill="#6b7280" stroke="#6b7280" stroke-width="1.05" points="1030.04,-329.14 1034.46,-323.85 1027.71,-325.23 1030.04,-329.14"/>
<text xml:space="preserve" text-anchor="middle" x="832.49" y="-455.51" font-family="Helvetica,sans-Serif" font-size="9.00">usesObject</text>
</g>
<!-- n_7090f20bd2bcefa2&#45;&gt;n_13c0c2482cd80504 -->
<g id="edge13" class="edge">
<title>n_7090f20bd2bcefa2&#45;&gt;n_13c0c2482cd80504</title>
<path fill="none" stroke="#6b7280" stroke-width="1.05" d="M666.99,-736.05C694.54,-764.19 746.03,-815.44 768.26,-828.84 841.62,-873.07 1045.12,-936.92 1142.27,-958.42"/>
<polygon fill="#6b7280" stroke="#6b7280" stroke-width="1.05" points="1141.54,-960.58 1148.37,-959.73 1142.5,-956.14 1141.54,-960.58"/>
<text xml:space="preserve" text-anchor="middle" x="826.99" y="-886.3" font-family="Helvetica,sans-Serif" font-size="9.00">:attacks / :distrusts / guides / trusts</text>
</g>
<!-- n_7090f20bd2bcefa2&#45;&gt;n_3f78095275e1a611 -->
<g id="edge17" class="edge">
<title>n_7090f20bd2bcefa2&#45;&gt;n_3f78095275e1a611</title>
<path fill="none" stroke="#6b7280" stroke-width="1.05" d="M661.36,-736.21C691.72,-781.92 768.9,-898.12 803.31,-949.92"/>
<polygon fill="#6b7280" stroke="#6b7280" stroke-width="1.05" points="801.3,-951.01 806.8,-955.17 805.09,-948.5 801.3,-951.01"/>
<text xml:space="preserve" text-anchor="middle" x="692.73" y="-848.05" font-family="Helvetica,sans-Serif" font-size="9.00">rulesOver / travelsTo</text>
</g>
<!-- n_7090f20bd2bcefa2&#45;&gt;n_529e92fffc13fd14 -->
<g id="edge35" class="edge">
<title>n_7090f20bd2bcefa2&#45;&gt;n_529e92fffc13fd14</title>
<path fill="none" stroke="#6b7280" stroke-width="1.05" d="M671.62,-698.28C724.08,-654.88 852.98,-548.24 911.08,-500.17"/>
<polygon fill="#6b7280" stroke="#6b7280" stroke-width="1.05" points="912.36,-502.06 915.92,-496.17 909.46,-498.56 912.36,-502.06"/>
<text xml:space="preserve" text-anchor="middle" x="783.49" y="-598.68" font-family="Helvetica,sans-Serif" font-size="9.00">trusts</text>
</g>
<!-- n_7090f20bd2bcefa2&#45;&gt;n_03e4ed4d84bc3e44 -->
<g id="edge23" class="edge">
<title>n_7090f20bd2bcefa2&#45;&gt;n_03e4ed4d84bc3e44</title>
<path fill="none" stroke="#6b7280" stroke-width="1.05" d="M558.46,-700.32C481.2,-685.87 370.49,-665.16 292.85,-650.64"/>
<polygon fill="#6b7280" stroke="#6b7280" stroke-width="1.05" points="293.34,-648.42 286.54,-649.46 292.51,-652.89 293.34,-648.42"/>
<text xml:space="preserve" text-anchor="middle" x="396.81" y="-676.74" font-family="Helvetica,sans-Serif" font-size="9.00">leavesPlace</text>
</g>
<!-- n_7090f20bd2bcefa2&#45;&gt;n_46d23f7a9a54b1d8 -->
<g id="edge28" class="edge">
<title>n_7090f20bd2bcefa2&#45;&gt;n_46d23f7a9a54b1d8</title>
<path fill="none" stroke="#6b7280" stroke-width="1.05" d="M582.42,-736.37C477.35,-766.72 273.33,-825.65 163.67,-857.33"/>
<polygon fill="#6b7280" stroke="#6b7280" stroke-width="1.05" points="163.08,-855.13 157.47,-859.12 164.34,-859.5 163.08,-855.13"/>
<text xml:space="preserve" text-anchor="middle" x="350.91" y="-799.88" font-family="Helvetica,sans-Serif" font-size="9.00">deceives</text>
</g>
<!-- n_7090f20bd2bcefa2&#45;&gt;n_8428cd140690a665 -->
<g id="edge18" class="edge">
<title>n_7090f20bd2bcefa2&#45;&gt;n_8428cd140690a665</title>
<path fill="none" stroke="#6b7280" stroke-width="1.05" d="M641.15,-698.22C601.67,-627.72 426.54,-382.55 359.75,-303.16"/>
<polygon fill="#6b7280" stroke="#6b7280" stroke-width="1.05" points="361.74,-301.98 355.79,-298.51 358.27,-304.93 361.74,-301.98"/>
<text xml:space="preserve" text-anchor="middle" x="442.2" y="-485.16" font-family="Helvetica,sans-Serif" font-size="9.00">possessesObject / usesObject</text>
</g>
<!-- n_0b3b7dc6bc359817&#45;&gt;n_9a57886d893e266e -->
<g id="edge15" class="edge">
<title>n_0b3b7dc6bc359817&#45;&gt;n_9a57886d893e266e</title>
<path fill="none" stroke="#6b7280" stroke-width="1.05" d="M902.81,-812.36C913.8,-816.51 926.75,-820.75 940.2,-824.69"/>
<polygon fill="#6b7280" stroke="#6b7280" stroke-width="1.05" points="939.31,-826.81 946.18,-826.41 940.56,-822.43 939.31,-826.81"/>
<text xml:space="preserve" text-anchor="middle" x="903.38" y="-821.91" font-family="Helvetica,sans-Serif" font-size="9.00">empowers</text>
</g>
<!-- n_0b3b7dc6bc359817&#45;&gt;n_01d532d0546308bf -->
<g id="edge24" class="edge">
<title>n_0b3b7dc6bc359817&#45;&gt;n_01d532d0546308bf</title>
<path fill="none" stroke="#6b7280" stroke-width="1.05" d="M896.91,-774.32C940.74,-742.49 1029.12,-678.3 1077.15,-643.41"/>
<polygon fill="#6b7280" stroke="#6b7280" stroke-width="1.05" points="1078.44,-645.28 1082.36,-639.62 1075.77,-641.6 1078.44,-645.28"/>
<text xml:space="preserve" text-anchor="middle" x="971.82" y="-708.25" font-family="Helvetica,sans-Serif" font-size="9.00">locatedIn</text>
</g>
<!-- n_9a57886d893e266e&#45;&gt;n_7090f20bd2bcefa2 -->
<g id="edge2" class="edge">
<title>n_9a57886d893e266e&#45;&gt;n_7090f20bd2bcefa2</title>
<path fill="none" stroke="#6b7280" stroke-width="1.05" d="M1025.27,-820.23C1010.58,-798.53 986.45,-764.96 973.05,-757.42 963.14,-751.85 838.48,-737.49 746.69,-727.54"/>
<polygon fill="#6b7280" stroke="#6b7280" stroke-width="1.05" points="747.04,-725.29 740.33,-726.85 746.55,-729.81 747.04,-725.29"/>
<text xml:space="preserve" text-anchor="middle" x="1019.98" y="-746.08" font-family="Helvetica,sans-Serif" font-size="9.00">:commands / :loves / :threatens / deceives / fears / guides / trusts</text>
</g>
<!-- n_9a57886d893e266e&#45;&gt;n_0b3b7dc6bc359817 -->
<g id="edge1" class="edge">
<title>n_9a57886d893e266e&#45;&gt;n_0b3b7dc6bc359817</title>
<path fill="none" stroke="#6b7280" stroke-width="1.05" d="M1005.84,-820.12C995.42,-816.18 983.24,-812.16 970.54,-808.39"/>
<polygon fill="#6b7280" stroke="#6b7280" stroke-width="1.05" points="971.41,-806.28 964.53,-806.65 970.14,-810.65 971.41,-806.28"/>
<text xml:space="preserve" text-anchor="middle" x="1007.7" y="-804.26" font-family="Helvetica,sans-Serif" font-size="9.00">usesObject</text>
</g>
<!-- n_9a57886d893e266e&#45;&gt;n_01d532d0546308bf -->
<g id="edge25" class="edge">
<title>n_9a57886d893e266e&#45;&gt;n_01d532d0546308bf</title>
<path fill="none" stroke="#6b7280" stroke-width="1.05" d="M1044.07,-820.12C1056.99,-780.82 1086.56,-690.89 1101.32,-646.02"/>
<polygon fill="#6b7280" stroke="#6b7280" stroke-width="1.05" points="1103.45,-646.84 1103.32,-639.95 1099.12,-645.41 1103.45,-646.84"/>
<text xml:space="preserve" text-anchor="middle" x="1025.54" y="-731.3" font-family="Helvetica,sans-Serif" font-size="9.00">leavesPlace / rulesOver</text>
</g>
<!-- n_9a57886d893e266e&#45;&gt;n_13c0c2482cd80504 -->
<g id="edge5" class="edge">
<title>n_9a57886d893e266e&#45;&gt;n_13c0c2482cd80504</title>
<path fill="none" stroke="#6b7280" stroke-width="1.05" d="M1053.9,-858.3C1081.87,-881.43 1140.05,-919.27 1184.04,-943.82"/>
<polygon fill="#6b7280" stroke="#6b7280" stroke-width="1.05" points="1182.78,-945.73 1189.57,-946.87 1184.98,-941.74 1182.78,-945.73"/>
<text xml:space="preserve" text-anchor="middle" x="1070.88" y="-907.54" font-family="Helvetica,sans-Serif" font-size="9.00">deceives / guides / trusts</text>
</g>
<!-- n_9a57886d893e266e&#45;&gt;n_3f78095275e1a611 -->
<g id="edge36" class="edge">
<title>n_9a57886d893e266e&#45;&gt;n_3f78095275e1a611</title>
<path fill="none" stroke="#6b7280" stroke-width="1.05" d="M1007.55,-858.18C968.3,-882.78 899.84,-925.68 857.47,-952.23"/>
<polygon fill="#6b7280" stroke="#6b7280" stroke-width="1.05" points="856.29,-950.28 851.99,-955.66 858.7,-954.14 856.29,-950.28"/>
<text xml:space="preserve" text-anchor="middle" x="909.32" y="-909.23" font-family="Helvetica,sans-Serif" font-size="9.00">rulesOver</text>
</g>
<!-- n_9a57886d893e266e&#45;&gt;n_529e92fffc13fd14 -->
<g id="edge22" class="edge">
<title>n_9a57886d893e266e&#45;&gt;n_529e92fffc13fd14</title>
<path fill="none" stroke="#6b7280" stroke-width="1.05" d="M1032.68,-820.21C1016.47,-759.77 966.07,-571.97 947.38,-502.32"/>
<polygon fill="#6b7280" stroke="#6b7280" stroke-width="1.05" points="949.66,-502.03 945.78,-496.34 945.27,-503.21 949.66,-502.03"/>
<text xml:space="preserve" text-anchor="middle" x="975.2" y="-659.63" font-family="Helvetica,sans-Serif" font-size="9.00">guides</text>
</g>
<!-- n_e0e2c278bd96942f&#45;&gt;n_7090f20bd2bcefa2 -->
<g id="edge31" class="edge">
<title>n_e0e2c278bd96942f&#45;&gt;n_7090f20bd2bcefa2</title>
<path fill="none" stroke="#6b7280" stroke-width="1.05" d="M664.03,-321.11C652.04,-388.28 640.01,-612.95 643.9,-690.57"/>
<polygon fill="#6b7280" stroke="#6b7280" stroke-width="1.05" points="641.62,-690.52 644.29,-696.87 646.16,-690.24 641.62,-690.52"/>
<text xml:space="preserve" text-anchor="middle" x="636.74" y="-511.27" font-family="Helvetica,sans-Serif" font-size="9.00">trusts</text>
</g>
<!-- n_e0e2c278bd96942f&#45;&gt;n_01d532d0546308bf -->
<g id="edge9" class="edge">
<title>n_e0e2c278bd96942f&#45;&gt;n_01d532d0546308bf</title>
<path fill="none" stroke="#6b7280" stroke-width="1.05" d="M684.42,-320.91C712.93,-358.76 781.57,-444.59 855.37,-498.39 915.54,-542.26 994.11,-576.76 1047.97,-597.54"/>
<polygon fill="#6b7280" stroke="#6b7280" stroke-width="1.05" points="1047.03,-599.62 1053.92,-599.81 1048.66,-595.37 1047.03,-599.62"/>
<text xml:space="preserve" text-anchor="middle" x="830.25" y="-500.35" font-family="Helvetica,sans-Serif" font-size="9.00">leavesPlace</text>
</g>
<!-- n_e0e2c278bd96942f&#45;&gt;n_a766a39a5702031d -->
<g id="edge21" class="edge">
<title>n_e0e2c278bd96942f&#45;&gt;n_a766a39a5702031d</title>
<path fill="none" stroke="#6b7280" stroke-width="1.05" d="M677.52,-282.89C695.69,-233.58 744.34,-101.62 765.22,-44.97"/>
<polygon fill="#6b7280" stroke="#6b7280" stroke-width="1.05" points="767.31,-45.87 767.42,-38.98 763.04,-44.29 767.31,-45.87"/>
<text xml:space="preserve" text-anchor="middle" x="697.62" y="-162.13" font-family="Helvetica,sans-Serif" font-size="9.00">leavesPlace</text>
</g>
<!-- n_e0e2c278bd96942f&#45;&gt;n_8428cd140690a665 -->
<g id="edge12" class="edge">
<title>n_e0e2c278bd96942f&#45;&gt;n_8428cd140690a665</title>
<path fill="none" stroke="#6b7280" stroke-width="1.05" d="M580.37,-295.59C535.31,-292.42 480.63,-288.58 434.27,-285.32"/>
<polygon fill="#6b7280" stroke="#6b7280" stroke-width="1.05" points="434.54,-283.06 427.89,-284.88 434.22,-287.6 434.54,-283.06"/>
<text xml:space="preserve" text-anchor="middle" x="480.81" y="-292.15" font-family="Helvetica,sans-Serif" font-size="9.00">usesObject</text>
</g>
<!-- n_f3478339ce530c39&#45;&gt;n_7090f20bd2bcefa2 -->
<g id="edge19" class="edge">
<title>n_f3478339ce530c39&#45;&gt;n_7090f20bd2bcefa2</title>
<path fill="none" stroke="#6b7280" stroke-width="1.05" d="M493.93,-1149.79C529.59,-1078.51 623.03,-827.24 645.01,-744.1"/>
<polygon fill="#6b7280" stroke="#6b7280" stroke-width="1.05" points="647.19,-744.76 646.58,-737.91 642.78,-743.65 647.19,-744.76"/>
<text xml:space="preserve" text-anchor="middle" x="612.93" y="-947.08" font-family="Helvetica,sans-Serif" font-size="9.00">empowers / heals</text>
</g>
<!-- n_a79bd3704523450e&#45;&gt;n_01d532d0546308bf -->
<g id="edge16" class="edge">
<title>n_a79bd3704523450e&#45;&gt;n_01d532d0546308bf</title>
<path fill="none" stroke="#6b7280" stroke-width="1.05" d="M1071.65,-322.76C1078.58,-376.35 1098.46,-530.05 1106.55,-592.58"/>
<polygon fill="#6b7280" stroke="#6b7280" stroke-width="1.05" points="1104.27,-592.7 1107.36,-598.86 1108.78,-592.12 1104.27,-592.7"/>
<text xml:space="preserve" text-anchor="middle" x="1070.84" y="-463.4" font-family="Helvetica,sans-Serif" font-size="9.00">locatedIn</text>
</g>
<!-- n_a79bd3704523450e&#45;&gt;n_6164275b7f279eee -->
<g id="edge33" class="edge">
<title>n_a79bd3704523450e&#45;&gt;n_6164275b7f279eee</title>
<path fill="none" stroke="#6b7280" stroke-width="1.05" d="M1124.7,-284.85C1162.56,-271.81 1212.78,-254.51 1252.14,-240.95"/>
<polygon fill="#6b7280" stroke="#6b7280" stroke-width="1.05" points="1252.45,-243.25 1257.85,-238.98 1250.97,-238.95 1252.45,-243.25"/>
<text xml:space="preserve" text-anchor="middle" x="1173.27" y="-263.61" font-family="Helvetica,sans-Serif" font-size="9.00">locatedIn</text>
</g>
<!-- n_13c0c2482cd80504&#45;&gt;n_7090f20bd2bcefa2 -->
<g id="edge3" class="edge">
<title>n_13c0c2482cd80504&#45;&gt;n_7090f20bd2bcefa2</title>
<path fill="none" stroke="#6b7280" stroke-width="1.05" d="M1150.04,-947.76C1053.47,-925.17 897.48,-881.88 775.41,-815.66 755.12,-804.64 707.94,-766.57 677.26,-741.15"/>
<polygon fill="#6b7280" stroke="#6b7280" stroke-width="1.05" points="679.04,-739.67 672.58,-737.26 676.13,-743.17 679.04,-739.67"/>
<text xml:space="preserve" text-anchor="middle" x="790.92" y="-873.95" font-family="Helvetica,sans-Serif" font-size="9.00">:betrays / :distrusts / deceives / follows / guides / trusts</text>
</g>
<!-- n_13c0c2482cd80504&#45;&gt;n_9a57886d893e266e -->
<g id="edge10" class="edge">
<title>n_13c0c2482cd80504&#45;&gt;n_9a57886d893e266e</title>
<path fill="none" stroke="#6b7280" stroke-width="1.05" d="M1223.97,-947.6C1196.01,-924.47 1137.82,-886.63 1093.84,-862.08"/>
<polygon fill="#6b7280" stroke="#6b7280" stroke-width="1.05" points="1095.09,-860.17 1088.3,-859.02 1092.89,-864.15 1095.09,-860.17"/>
<text xml:space="preserve" text-anchor="middle" x="1143.25" y="-902.26" font-family="Helvetica,sans-Serif" font-size="9.00">guides</text>
</g>
<!-- n_13c0c2482cd80504&#45;&gt;n_9677da89edf256d9 -->
<g id="edge7" class="edge">
<title>n_13c0c2482cd80504&#45;&gt;n_9677da89edf256d9</title>
<path fill="none" stroke="#6b7280" stroke-width="1.05" d="M1245.64,-985.65C1263.64,-1047.17 1320.43,-1241.21 1341.29,-1312.51"/>
<polygon fill="#6b7280" stroke="#6b7280" stroke-width="1.05" points="1339.09,-1313.07 1343.1,-1318.67 1343.45,-1311.79 1339.09,-1313.07"/>
<text xml:space="preserve" text-anchor="middle" x="1271.75" y="-1155" font-family="Helvetica,sans-Serif" font-size="9.00">usesObject</text>
</g>
<!-- n_13c0c2482cd80504&#45;&gt;n_01d532d0546308bf -->
<g id="edge14" class="edge">
<title>n_13c0c2482cd80504&#45;&gt;n_01d532d0546308bf</title>
<path fill="none" stroke="#6b7280" stroke-width="1.05" d="M1232.91,-947.51C1211.01,-889.07 1145.04,-712.98 1119.91,-645.89"/>
<polygon fill="#6b7280" stroke="#6b7280" stroke-width="1.05" points="1122.15,-645.4 1117.74,-640.12 1117.89,-647 1122.15,-645.4"/>
<text xml:space="preserve" text-anchor="middle" x="1104.87" y="-794.89" font-family="Helvetica,sans-Serif" font-size="9.00">leavesPlace / rulesOver / travelsTo</text>
</g>
<!-- n_13c0c2482cd80504&#45;&gt;n_26f14958491f2e25 -->
<g id="edge32" class="edge">
<title>n_13c0c2482cd80504&#45;&gt;n_26f14958491f2e25</title>
<path fill="none" stroke="#6b7280" stroke-width="1.05" d="M1282.99,-947.51C1347.87,-918.53 1470.68,-863.68 1539.68,-832.87"/>
<polygon fill="#6b7280" stroke="#6b7280" stroke-width="1.05" points="1540.54,-834.98 1545.55,-830.25 1538.69,-830.82 1540.54,-834.98"/>
<text xml:space="preserve" text-anchor="middle" x="1391.92" y="-890.59" font-family="Helvetica,sans-Serif" font-size="9.00">usesObject</text>
</g>
<!-- n_529e92fffc13fd14&#45;&gt;n_01d532d0546308bf -->
<g id="edge4" class="edge">
<title>n_529e92fffc13fd14&#45;&gt;n_01d532d0546308bf</title>
<path fill="none" stroke="#6b7280" stroke-width="1.05" d="M962.85,-495.04C993.41,-520.89 1048,-567.06 1081.42,-595.33"/>
<polygon fill="#6b7280" stroke="#6b7280" stroke-width="1.05" points="1079.76,-596.9 1086.19,-599.36 1082.69,-593.43 1079.76,-596.9"/>
<text xml:space="preserve" text-anchor="middle" x="978.25" y="-549.66" font-family="Helvetica,sans-Serif" font-size="9.00">leavesPlace / travelsTo</text>
</g>
<!-- n_529e92fffc13fd14&#45;&gt;n_a766a39a5702031d -->
<g id="edge38" class="edge">
<title>n_529e92fffc13fd14&#45;&gt;n_a766a39a5702031d</title>
<path fill="none" stroke="#6b7280" stroke-width="1.05" d="M933.42,-456.9C907.37,-384.83 814.87,-128.94 784.61,-45.24"/>
<polygon fill="#6b7280" stroke="#6b7280" stroke-width="1.05" points="786.77,-44.53 782.42,-39.19 782.49,-46.08 786.77,-44.53"/>
<text xml:space="preserve" text-anchor="middle" x="839.21" y="-249.07" font-family="Helvetica,sans-Serif" font-size="9.00">travelsTo</text>
</g>
<!-- n_529e92fffc13fd14&#45;&gt;n_6164275b7f279eee -->
<g id="edge20" class="edge">
<title>n_529e92fffc13fd14&#45;&gt;n_6164275b7f279eee</title>
<path fill="none" stroke="#6b7280" stroke-width="1.05" d="M969.55,-456.9C1012.56,-428.73 1095.29,-374.2 1164.67,-326.38 1205.57,-298.19 1252.06,-264.88 1282.39,-242.98"/>
<polygon fill="#6b7280" stroke="#6b7280" stroke-width="1.05" points="1283.38,-245.07 1287.32,-239.42 1280.72,-241.38 1283.38,-245.07"/>
<text xml:space="preserve" text-anchor="middle" x="1146.3" y="-328.33" font-family="Helvetica,sans-Serif" font-size="9.00">travelsTo</text>
</g>
<!-- n_529e92fffc13fd14&#45;&gt;n_3f78095275e1a611 -->
<g id="edge34" class="edge">
<title>n_529e92fffc13fd14&#45;&gt;n_3f78095275e1a611</title>
<path fill="none" stroke="#6b7280" stroke-width="1.05" d="M924.87,-495.16C889.85,-540.04 805.15,-656.75 775.41,-770.83 758.79,-834.63 788.2,-910.67 806.8,-949.65"/>
<polygon fill="#6b7280" stroke="#6b7280" stroke-width="1.05" points="804.54,-950.22 809.44,-955.06 808.63,-948.22 804.54,-950.22"/>
<text xml:space="preserve" text-anchor="middle" x="783.06" y="-698.97" font-family="Helvetica,sans-Serif" font-size="9.00">travelsTo</text>
</g>
<!-- n_26f14958491f2e25&#45;&gt;n_01d532d0546308bf -->
<g id="edge29" class="edge">
<title>n_26f14958491f2e25&#45;&gt;n_01d532d0546308bf</title>
<path fill="none" stroke="#6b7280" stroke-width="1.05" d="M1541.76,-791.23C1452.19,-755.61 1260.64,-679.42 1165.71,-641.67"/>
<polygon fill="#6b7280" stroke="#6b7280" stroke-width="1.05" points="1166.57,-639.57 1159.69,-639.28 1164.89,-643.79 1166.57,-639.57"/>
<text xml:space="preserve" text-anchor="middle" x="1331.17" y="-716.89" font-family="Helvetica,sans-Serif" font-size="9.00">locatedIn</text>
</g>
<!-- n_8428cd140690a665&#45;&gt;n_7090f20bd2bcefa2 -->
<g id="edge11" class="edge">
<title>n_8428cd140690a665&#45;&gt;n_7090f20bd2bcefa2</title>
<path fill="none" stroke="#6b7280" stroke-width="1.05" d="M341.76,-297.28C381.24,-367.78 556.37,-612.95 623.16,-692.34"/>
<polygon fill="#6b7280" stroke="#6b7280" stroke-width="1.05" points="621.18,-693.52 627.13,-696.99 624.64,-690.57 621.18,-693.52"/>
<text xml:space="preserve" text-anchor="middle" x="451.47" y="-503.75" font-family="Helvetica,sans-Serif" font-size="9.00">curses / heals</text>
</g>
<!-- n_7090f20bd2bcefa2 -->
<g id="node1" class="node">
<title>n_7090f20bd2bcefa2</title>
<path fill="#eaf6ea" stroke="#5f8d5a" stroke-width="1.35" d="M726.44,-735.75C726.44,-735.75 571.04,-735.75 571.04,-735.75 565.04,-735.75 559.04,-729.75 559.04,-723.75 559.04,-723.75 559.04,-710.67 559.04,-710.67 559.04,-704.67 565.04,-698.67 571.04,-698.67 571.04,-698.67 726.44,-698.67 726.44,-698.67 732.44,-698.67 738.44,-704.67 738.44,-710.67 738.44,-710.67 738.44,-723.75 738.44,-723.75 738.44,-729.75 732.44,-735.75 726.44,-735.75"/>
<text xml:space="preserve" text-anchor="middle" x="648.74" y="-720.26" font-family="Helvetica,sans-Serif" font-size="11.00">Dorothy</text>
<text xml:space="preserve" text-anchor="middle" x="648.74" y="-706.76" font-family="Helvetica,sans-Serif" font-size="11.00">«Character, owl:NamedIndividual»</text>
</g>
<!-- n_0b3b7dc6bc359817 -->
<g id="node2" class="node">
<title>n_0b3b7dc6bc359817</title>
<path fill="#fbe9e7" stroke="#b36b55" stroke-width="1.35" d="M950.44,-811.78C950.44,-811.78 791.29,-811.78 791.29,-811.78 785.29,-811.78 779.29,-805.78 779.29,-799.78 779.29,-799.78 779.29,-786.7 779.29,-786.7 779.29,-780.7 785.29,-774.7 791.29,-774.7 791.29,-774.7 950.44,-774.7 950.44,-774.7 956.44,-774.7 962.44,-780.7 962.44,-786.7 962.44,-786.7 962.44,-799.78 962.44,-799.78 962.44,-805.78 956.44,-811.78 950.44,-811.78"/>
<text xml:space="preserve" text-anchor="middle" x="870.86" y="-796.29" font-family="Helvetica,sans-Serif" font-size="11.00">her friends</text>
<text xml:space="preserve" text-anchor="middle" x="870.86" y="-782.79" font-family="Helvetica,sans-Serif" font-size="11.00">«Substance, owl:NamedIndividual»</text>
</g>
<!-- n_3345bed2b2b72da6 -->
<g id="node3" class="node">
<title>n_3345bed2b2b72da6</title>
<path fill="#f7e9f3" stroke="#a05a8f" stroke-width="1.35" d="M328.75,-1123.16C328.75,-1123.16 186.1,-1123.16 186.1,-1123.16 180.1,-1123.16 174.1,-1117.16 174.1,-1111.16 174.1,-1111.16 174.1,-1098.08 174.1,-1098.08 174.1,-1092.08 180.1,-1086.08 186.1,-1086.08 186.1,-1086.08 328.75,-1086.08 328.75,-1086.08 334.75,-1086.08 340.75,-1092.08 340.75,-1098.08 340.75,-1098.08 340.75,-1111.16 340.75,-1111.16 340.75,-1117.16 334.75,-1123.16 328.75,-1123.16"/>
<text xml:space="preserve" text-anchor="middle" x="257.42" y="-1107.67" font-family="Helvetica,sans-Serif" font-size="11.00">Kansas</text>
<text xml:space="preserve" text-anchor="middle" x="257.42" y="-1094.17" font-family="Helvetica,sans-Serif" font-size="11.00">«Region, owl:NamedIndividual»</text>
</g>
<!-- n_9a57886d893e266e -->
<g id="node4" class="node">
<title>n_9a57886d893e266e</title>
<path fill="#eaf6ea" stroke="#5f8d5a" stroke-width="1.35" d="M1115.49,-857.77C1115.49,-857.77 960.09,-857.77 960.09,-857.77 954.09,-857.77 948.09,-851.77 948.09,-845.77 948.09,-845.77 948.09,-832.69 948.09,-832.69 948.09,-826.69 954.09,-820.69 960.09,-820.69 960.09,-820.69 1115.49,-820.69 1115.49,-820.69 1121.49,-820.69 1127.49,-826.69 1127.49,-832.69 1127.49,-832.69 1127.49,-845.77 1127.49,-845.77 1127.49,-851.77 1121.49,-857.77 1115.49,-857.77"/>
<text xml:space="preserve" text-anchor="middle" x="1037.79" y="-842.28" font-family="Helvetica,sans-Serif" font-size="11.00">Oz</text>
<text xml:space="preserve" text-anchor="middle" x="1037.79" y="-828.78" font-family="Helvetica,sans-Serif" font-size="11.00">«Character, owl:NamedIndividual»</text>
</g>
<!-- n_9677da89edf256d9 -->
<g id="node5" class="node">
<title>n_9677da89edf256d9</title>
<path fill="#fbe9e7" stroke="#b36b55" stroke-width="1.35" d="M1428.66,-1357.68C1428.66,-1357.68 1269.51,-1357.68 1269.51,-1357.68 1263.51,-1357.68 1257.51,-1351.68 1257.51,-1345.68 1257.51,-1345.68 1257.51,-1332.6 1257.51,-1332.6 1257.51,-1326.6 1263.51,-1320.6 1269.51,-1320.6 1269.51,-1320.6 1428.66,-1320.6 1428.66,-1320.6 1434.66,-1320.6 1440.66,-1326.6 1440.66,-1332.6 1440.66,-1332.6 1440.66,-1345.68 1440.66,-1345.68 1440.66,-1351.68 1434.66,-1357.68 1428.66,-1357.68"/>
<text xml:space="preserve" text-anchor="middle" x="1349.09" y="-1342.19" font-family="Helvetica,sans-Serif" font-size="11.00">strangers</text>
<text xml:space="preserve" text-anchor="middle" x="1349.09" y="-1328.69" font-family="Helvetica,sans-Serif" font-size="11.00">«Substance, owl:NamedIndividual»</text>
</g>
<!-- n_01d532d0546308bf -->
<g id="node6" class="node">
<title>n_01d532d0546308bf</title>
<path fill="#e0f7fa" stroke="#4f9ca6" stroke-width="1.35" d="M1173.48,-638.07C1173.48,-638.07 1046.58,-638.07 1046.58,-638.07 1040.58,-638.07 1034.58,-632.07 1034.58,-626.07 1034.58,-626.07 1034.58,-612.99 1034.58,-612.99 1034.58,-606.99 1040.58,-600.99 1046.58,-600.99 1046.58,-600.99 1173.48,-600.99 1173.48,-600.99 1179.48,-600.99 1185.48,-606.99 1185.48,-612.99 1185.48,-612.99 1185.48,-626.07 1185.48,-626.07 1185.48,-632.07 1179.48,-638.07 1173.48,-638.07"/>
<text xml:space="preserve" text-anchor="middle" x="1110.03" y="-622.58" font-family="Helvetica,sans-Serif" font-size="11.00">the Emerald City</text>
<text xml:space="preserve" text-anchor="middle" x="1110.03" y="-609.08" font-family="Helvetica,sans-Serif" font-size="11.00">«Site, owl:NamedIndividual»</text>
</g>
<!-- n_a766a39a5702031d -->
<g id="node7" class="node">
<title>n_a766a39a5702031d</title>
<path fill="#e0f7fa" stroke="#4f9ca6" stroke-width="1.35" d="M838.41,-37.08C838.41,-37.08 711.51,-37.08 711.51,-37.08 705.51,-37.08 699.51,-31.08 699.51,-25.08 699.51,-25.08 699.51,-12 699.51,-12 699.51,-6 705.51,0 711.51,0 711.51,0 838.41,0 838.41,0 844.41,0 850.41,-6 850.41,-12 850.41,-12 850.41,-25.08 850.41,-25.08 850.41,-31.08 844.41,-37.08 838.41,-37.08"/>
<text xml:space="preserve" text-anchor="middle" x="774.96" y="-21.59" font-family="Helvetica,sans-Serif" font-size="11.00">the forest</text>
<text xml:space="preserve" text-anchor="middle" x="774.96" y="-8.09" font-family="Helvetica,sans-Serif" font-size="11.00">«Site, owl:NamedIndividual»</text>
</g>
<!-- n_e0e2c278bd96942f -->
<g id="node8" class="node">
<title>n_e0e2c278bd96942f</title>
<path fill="#eaf6ea" stroke="#5f8d5a" stroke-width="1.35" d="M748.2,-320.46C748.2,-320.46 592.8,-320.46 592.8,-320.46 586.8,-320.46 580.8,-314.46 580.8,-308.46 580.8,-308.46 580.8,-295.38 580.8,-295.38 580.8,-289.38 586.8,-283.38 592.8,-283.38 592.8,-283.38 748.2,-283.38 748.2,-283.38 754.2,-283.38 760.2,-289.38 760.2,-295.38 760.2,-295.38 760.2,-308.46 760.2,-308.46 760.2,-314.46 754.2,-320.46 748.2,-320.46"/>
<text xml:space="preserve" text-anchor="middle" x="670.5" y="-304.97" font-family="Helvetica,sans-Serif" font-size="11.00">the Lion</text>
<text xml:space="preserve" text-anchor="middle" x="670.5" y="-291.47" font-family="Helvetica,sans-Serif" font-size="11.00">«Character, owl:NamedIndividual»</text>
</g>
<!-- n_f3478339ce530c39 -->
<g id="node9" class="node">
<title>n_f3478339ce530c39</title>
<path fill="#e8f1fa" stroke="#5b7c99" stroke-width="1.35" d="M552.05,-1187.32C552.05,-1187.32 410.15,-1187.32 410.15,-1187.32 404.15,-1187.32 398.15,-1181.32 398.15,-1175.32 398.15,-1175.32 398.15,-1162.24 398.15,-1162.24 398.15,-1156.24 404.15,-1150.24 410.15,-1150.24 410.15,-1150.24 552.05,-1150.24 552.05,-1150.24 558.05,-1150.24 564.05,-1156.24 564.05,-1162.24 564.05,-1162.24 564.05,-1175.32 564.05,-1175.32 564.05,-1181.32 558.05,-1187.32 552.05,-1187.32"/>
<text xml:space="preserve" text-anchor="middle" x="481.1" y="-1171.83" font-family="Helvetica,sans-Serif" font-size="11.00">the Munchkins</text>
<text xml:space="preserve" text-anchor="middle" x="481.1" y="-1158.33" font-family="Helvetica,sans-Serif" font-size="11.00">«Artifact, owl:NamedIndividual»</text>
</g>
<!-- n_a79bd3704523450e -->
<g id="node10" class="node">
<title>n_a79bd3704523450e</title>
<path fill="#fbe9e7" stroke="#b36b55" stroke-width="1.35" d="M1148.79,-322.5C1148.79,-322.5 989.64,-322.5 989.64,-322.5 983.64,-322.5 977.64,-316.5 977.64,-310.5 977.64,-310.5 977.64,-297.42 977.64,-297.42 977.64,-291.42 983.64,-285.42 989.64,-285.42 989.64,-285.42 1148.79,-285.42 1148.79,-285.42 1154.79,-285.42 1160.79,-291.42 1160.79,-297.42 1160.79,-297.42 1160.79,-310.5 1160.79,-310.5 1160.79,-316.5 1154.79,-322.5 1148.79,-322.5"/>
<text xml:space="preserve" text-anchor="middle" x="1069.22" y="-307.01" font-family="Helvetica,sans-Serif" font-size="11.00">the people</text>
<text xml:space="preserve" text-anchor="middle" x="1069.22" y="-293.51" font-family="Helvetica,sans-Serif" font-size="11.00">«Substance, owl:NamedIndividual»</text>
</g>
<!-- n_6164275b7f279eee -->
<g id="node11" class="node">
<title>n_6164275b7f279eee</title>
<path fill="#ede7f6" stroke="#7e64a8" stroke-width="1.35" d="M1401.01,-237.82C1401.01,-237.82 1229.11,-237.82 1229.11,-237.82 1223.11,-237.82 1217.11,-231.82 1217.11,-225.82 1217.11,-225.82 1217.11,-212.74 1217.11,-212.74 1217.11,-206.74 1223.11,-200.74 1229.11,-200.74 1229.11,-200.74 1401.01,-200.74 1401.01,-200.74 1407.01,-200.74 1413.01,-206.74 1413.01,-212.74 1413.01,-212.74 1413.01,-225.82 1413.01,-225.82 1413.01,-231.82 1407.01,-237.82 1401.01,-237.82"/>
<text xml:space="preserve" text-anchor="middle" x="1315.06" y="-222.33" font-family="Helvetica,sans-Serif" font-size="11.00">the road</text>
<text xml:space="preserve" text-anchor="middle" x="1315.06" y="-208.83" font-family="Helvetica,sans-Serif" font-size="11.00">«RouteOrPath, owl:NamedIndividual»</text>
</g>
<!-- n_13c0c2482cd80504 -->
<g id="node12" class="node">
<title>n_13c0c2482cd80504</title>
<path fill="#eaf6ea" stroke="#5f8d5a" stroke-width="1.35" d="M1317.78,-985.21C1317.78,-985.21 1162.38,-985.21 1162.38,-985.21 1156.38,-985.21 1150.38,-979.21 1150.38,-973.21 1150.38,-973.21 1150.38,-960.13 1150.38,-960.13 1150.38,-954.13 1156.38,-948.13 1162.38,-948.13 1162.38,-948.13 1317.78,-948.13 1317.78,-948.13 1323.78,-948.13 1329.78,-954.13 1329.78,-960.13 1329.78,-960.13 1329.78,-973.21 1329.78,-973.21 1329.78,-979.21 1323.78,-985.21 1317.78,-985.21"/>
<text xml:space="preserve" text-anchor="middle" x="1240.08" y="-969.72" font-family="Helvetica,sans-Serif" font-size="11.00">the Scarecrow</text>
<text xml:space="preserve" text-anchor="middle" x="1240.08" y="-956.22" font-family="Helvetica,sans-Serif" font-size="11.00">«Character, owl:NamedIndividual»</text>
</g>
<!-- n_3f78095275e1a611 -->
<g id="node13" class="node">
<title>n_3f78095275e1a611</title>
<path fill="#e0f7fa" stroke="#4f9ca6" stroke-width="1.35" d="M883.76,-994.06C883.76,-994.06 756.86,-994.06 756.86,-994.06 750.86,-994.06 744.86,-988.06 744.86,-982.06 744.86,-982.06 744.86,-968.98 744.86,-968.98 744.86,-962.98 750.86,-956.98 756.86,-956.98 756.86,-956.98 883.76,-956.98 883.76,-956.98 889.76,-956.98 895.76,-962.98 895.76,-968.98 895.76,-968.98 895.76,-982.06 895.76,-982.06 895.76,-988.06 889.76,-994.06 883.76,-994.06"/>
<text xml:space="preserve" text-anchor="middle" x="820.31" y="-978.57" font-family="Helvetica,sans-Serif" font-size="11.00">the Throne Room</text>
<text xml:space="preserve" text-anchor="middle" x="820.31" y="-965.07" font-family="Helvetica,sans-Serif" font-size="11.00">«Site, owl:NamedIndividual»</text>
</g>
<!-- n_529e92fffc13fd14 -->
<g id="node14" class="node">
<title>n_529e92fffc13fd14</title>
<path fill="#fff3d9" stroke="#b68b2c" stroke-width="1.35" d="M1009.39,-494.52C1009.39,-494.52 871.24,-494.52 871.24,-494.52 865.24,-494.52 859.24,-488.52 859.24,-482.52 859.24,-482.52 859.24,-469.44 859.24,-469.44 859.24,-463.44 865.24,-457.44 871.24,-457.44 871.24,-457.44 1009.39,-457.44 1009.39,-457.44 1015.39,-457.44 1021.39,-463.44 1021.39,-469.44 1021.39,-469.44 1021.39,-482.52 1021.39,-482.52 1021.39,-488.52 1015.39,-494.52 1009.39,-494.52"/>
<text xml:space="preserve" text-anchor="middle" x="940.32" y="-479.03" font-family="Helvetica,sans-Serif" font-size="11.00">the travelers</text>
<text xml:space="preserve" text-anchor="middle" x="940.32" y="-465.53" font-family="Helvetica,sans-Serif" font-size="11.00">«Group, owl:NamedIndividual»</text>
</g>
<!-- n_03e4ed4d84bc3e44 -->
<g id="node15" class="node">
<title>n_03e4ed4d84bc3e44</title>
<path fill="#f7e9f3" stroke="#a05a8f" stroke-width="1.35" d="M272.58,-652.05C272.58,-652.05 129.93,-652.05 129.93,-652.05 123.93,-652.05 117.93,-646.05 117.93,-640.05 117.93,-640.05 117.93,-626.97 117.93,-626.97 117.93,-620.97 123.93,-614.97 129.93,-614.97 129.93,-614.97 272.58,-614.97 272.58,-614.97 278.58,-614.97 284.58,-620.97 284.58,-626.97 284.58,-626.97 284.58,-640.05 284.58,-640.05 284.58,-646.05 278.58,-652.05 272.58,-652.05"/>
<text xml:space="preserve" text-anchor="middle" x="201.25" y="-636.56" font-family="Helvetica,sans-Serif" font-size="11.00">the West</text>
<text xml:space="preserve" text-anchor="middle" x="201.25" y="-623.06" font-family="Helvetica,sans-Serif" font-size="11.00">«Region, owl:NamedIndividual»</text>
</g>
<!-- n_46d23f7a9a54b1d8 -->
<g id="node16" class="node">
<title>n_46d23f7a9a54b1d8</title>
<path fill="#eaf6ea" stroke="#5f8d5a" stroke-width="1.35" d="M167.4,-897.23C167.4,-897.23 12,-897.23 12,-897.23 6,-897.23 0,-891.23 0,-885.23 0,-885.23 0,-872.15 0,-872.15 0,-866.15 6,-860.15 12,-860.15 12,-860.15 167.4,-860.15 167.4,-860.15 173.4,-860.15 179.4,-866.15 179.4,-872.15 179.4,-872.15 179.4,-885.23 179.4,-885.23 179.4,-891.23 173.4,-897.23 167.4,-897.23"/>
<text xml:space="preserve" text-anchor="middle" x="89.7" y="-881.74" font-family="Helvetica,sans-Serif" font-size="11.00">the Wicked Witch</text>
<text xml:space="preserve" text-anchor="middle" x="89.7" y="-868.24" font-family="Helvetica,sans-Serif" font-size="11.00">«Character, owl:NamedIndividual»</text>
</g>
<!-- n_26f14958491f2e25 -->
<g id="node17" class="node">
<title>n_26f14958491f2e25</title>
<path fill="#fbe9e7" stroke="#b36b55" stroke-width="1.35" d="M1669.56,-828.95C1669.56,-828.95 1510.41,-828.95 1510.41,-828.95 1504.41,-828.95 1498.41,-822.95 1498.41,-816.95 1498.41,-816.95 1498.41,-803.87 1498.41,-803.87 1498.41,-797.87 1504.41,-791.87 1510.41,-791.87 1510.41,-791.87 1669.56,-791.87 1669.56,-791.87 1675.56,-791.87 1681.56,-797.87 1681.56,-803.87 1681.56,-803.87 1681.56,-816.95 1681.56,-816.95 1681.56,-822.95 1675.56,-828.95 1669.56,-828.95"/>
<text xml:space="preserve" text-anchor="middle" x="1589.98" y="-813.46" font-family="Helvetica,sans-Serif" font-size="11.00">those people</text>
<text xml:space="preserve" text-anchor="middle" x="1589.98" y="-799.96" font-family="Helvetica,sans-Serif" font-size="11.00">«Substance, owl:NamedIndividual»</text>
</g>
<!-- n_8428cd140690a665 -->
<g id="node18" class="node">
<title>n_8428cd140690a665</title>
<path fill="#fbe9e7" stroke="#b36b55" stroke-width="1.35" d="M413.75,-296.83C413.75,-296.83 254.6,-296.83 254.6,-296.83 248.6,-296.83 242.6,-290.83 242.6,-284.83 242.6,-284.83 242.6,-271.75 242.6,-271.75 242.6,-265.75 248.6,-259.75 254.6,-259.75 254.6,-259.75 413.75,-259.75 413.75,-259.75 419.75,-259.75 425.75,-265.75 425.75,-271.75 425.75,-271.75 425.75,-284.83 425.75,-284.83 425.75,-290.83 419.75,-296.83 413.75,-296.83"/>
<text xml:space="preserve" text-anchor="middle" x="334.17" y="-281.34" font-family="Helvetica,sans-Serif" font-size="11.00">Toto</text>
<text xml:space="preserve" text-anchor="middle" x="334.17" y="-267.84" font-family="Helvetica,sans-Serif" font-size="11.00">«Substance, owl:NamedIndividual»</text>
</g>
<!-- legend_aa778b50a158 -->
<g id="node19" class="node">
<title>legend_aa778b50a158</title>
<path fill="#e8f1fa" stroke="#5b7c99" stroke-width="1.35" d="M440.15,-596C440.15,-596 404,-596 404,-596 398,-596 392,-590 392,-584 392,-584 392,-572 392,-572 392,-566 398,-560 404,-560 404,-560 440.15,-560 440.15,-560 446.15,-560 452.15,-566 452.15,-572 452.15,-572 452.15,-584 452.15,-584 452.15,-590 446.15,-596 440.15,-596"/>
<text xml:space="preserve" text-anchor="middle" x="422.07" y="-574.5" font-family="Helvetica,sans-Serif" font-size="10.00">Artifact (1)</text>
</g>
<!-- legend_ee9946c82d4a -->
<g id="node20" class="node">
<title>legend_ee9946c82d4a</title>
<path fill="#eaf6ea" stroke="#5f8d5a" stroke-width="1.35" d="M1291.4,-484C1291.4,-484 1244,-484 1244,-484 1238,-484 1232,-478 1232,-472 1232,-472 1232,-460 1232,-460 1232,-454 1238,-448 1244,-448 1244,-448 1291.4,-448 1291.4,-448 1297.4,-448 1303.4,-454 1303.4,-460 1303.4,-460 1303.4,-472 1303.4,-472 1303.4,-478 1297.4,-484 1291.4,-484"/>
<text xml:space="preserve" text-anchor="middle" x="1267.7" y="-462.5" font-family="Helvetica,sans-Serif" font-size="10.00">Character (5)</text>
</g>
<!-- legend_171a0606f7c7 -->
<g id="node21" class="node">
<title>legend_171a0606f7c7</title>
<path fill="#fff3d9" stroke="#b68b2c" stroke-width="1.35" d="M1050.9,-1100C1050.9,-1100 1020,-1100 1020,-1100 1014,-1100 1008,-1094 1008,-1088 1008,-1088 1008,-1076 1008,-1076 1008,-1070 1014,-1064 1020,-1064 1020,-1064 1050.9,-1064 1050.9,-1064 1056.9,-1064 1062.9,-1070 1062.9,-1076 1062.9,-1076 1062.9,-1088 1062.9,-1088 1062.9,-1094 1056.9,-1100 1050.9,-1100"/>
<text xml:space="preserve" text-anchor="middle" x="1035.45" y="-1078.5" font-family="Helvetica,sans-Serif" font-size="10.00">Group (1)</text>
</g>
<!-- legend_0f217179940c -->
<g id="node22" class="node">
<title>legend_0f217179940c</title>
<path fill="#f7e9f3" stroke="#a05a8f" stroke-width="1.35" d="M1335.4,-820C1335.4,-820 1300,-820 1300,-820 1294,-820 1288,-814 1288,-808 1288,-808 1288,-796 1288,-796 1288,-790 1294,-784 1300,-784 1300,-784 1335.4,-784 1335.4,-784 1341.4,-784 1347.4,-790 1347.4,-796 1347.4,-796 1347.4,-808 1347.4,-808 1347.4,-814 1341.4,-820 1335.4,-820"/>
<text xml:space="preserve" text-anchor="middle" x="1317.7" y="-798.5" font-family="Helvetica,sans-Serif" font-size="10.00">Region (2)</text>
</g>
<!-- legend_f85a8ad5a666 -->
<g id="node23" class="node">
<title>legend_f85a8ad5a666</title>
<path fill="#ede7f6" stroke="#7e64a8" stroke-width="1.35" d="M857.65,-1156C857.65,-1156 796,-1156 796,-1156 790,-1156 784,-1150 784,-1144 784,-1144 784,-1132 784,-1132 784,-1126 790,-1120 796,-1120 796,-1120 857.65,-1120 857.65,-1120 863.65,-1120 869.65,-1126 869.65,-1132 869.65,-1132 869.65,-1144 869.65,-1144 869.65,-1150 863.65,-1156 857.65,-1156"/>
<text xml:space="preserve" text-anchor="middle" x="826.83" y="-1134.5" font-family="Helvetica,sans-Serif" font-size="10.00">RouteOrPath (1)</text>
</g>
<!-- legend_5b6825d3c67a -->
<g id="node24" class="node">
<title>legend_5b6825d3c67a</title>
<path fill="#e0f7fa" stroke="#4f9ca6" stroke-width="1.35" d="M1218,-1156C1218,-1156 1188,-1156 1188,-1156 1182,-1156 1176,-1150 1176,-1144 1176,-1144 1176,-1132 1176,-1132 1176,-1126 1182,-1120 1188,-1120 1188,-1120 1218,-1120 1218,-1120 1224,-1120 1230,-1126 1230,-1132 1230,-1132 1230,-1144 1230,-1144 1230,-1150 1224,-1156 1218,-1156"/>
<text xml:space="preserve" text-anchor="middle" x="1203" y="-1134.5" font-family="Helvetica,sans-Serif" font-size="10.00">Site (3)</text>
</g>
<!-- legend_8db2d6d07b82 -->
<g id="node25" class="node">
<title>legend_8db2d6d07b82</title>
<path fill="#fbe9e7" stroke="#b36b55" stroke-width="1.35" d="M1015.15,-204C1015.15,-204 964,-204 964,-204 958,-204 952,-198 952,-192 952,-192 952,-180 952,-180 952,-174 958,-168 964,-168 964,-168 1015.15,-168 1015.15,-168 1021.15,-168 1027.15,-174 1027.15,-180 1027.15,-180 1027.15,-192 1027.15,-192 1027.15,-198 1021.15,-204 1015.15,-204"/>
<text xml:space="preserve" text-anchor="middle" x="989.58" y="-182.5" font-family="Helvetica,sans-Serif" font-size="10.00">Substance (5)</text>
</g>
</g>
</svg>
