<?xml version="1.0" encoding="UTF-8" standalone="no"?>
<!DOCTYPE svg PUBLIC "-//W3C//DTD SVG 1.1//EN"
 "http://www.w3.org/Graphics/SVG/1.1/DTD/svg11.dtd">
<!-- Generated by graphviz version 15.1.0 (20260618.0150)
 -->
<!-- Title: knowledge_graph Pages: 1 -->
<svg width="511pt" height="458pt"
 viewBox="0.00 0.00 511.00 458.00" xmlns="http://www.w3.org/2000/svg" xmlns:xlink="http://www.w3.org/1999/xlink">
<g id="graph0" class="graph" transform="scale(1 1) rotate(0) translate(25.2 432.6)">
<title>knowledge_graph</title>
<text xml:space="preserve" text-anchor="middle" x="230.1" y="-382.5" font-family="Helvetica,sans-Serif" font-size="22.00">Narrative Knowledge Graph</text>
<!-- n_9634db85a06ec471 -->
<g id="node1" class="node">
<title>n_9634db85a06ec471</title>
<path fill="#e8f1fa" stroke="#5b7c99" stroke-width="2.2" d="M448.2,-135.9C448.2,-135.9 267,-135.9 267,-135.9 261,-135.9 255,-129.9 255,-123.9 255,-123.9 255,-12 255,-12 255,-6 261,0 267,0 267,0 448.2,0 448.2,0 454.2,0 460.2,-6 460.2,-12 460.2,-12 460.2,-123.9 460.2,-123.9 460.2,-129.9 454.2,-135.9 448.2,-135.9"/>
<text xml:space="preserve" text-anchor="middle" x="357.6" y="-118.25" font-family="Helvetica,sans-Serif" font-size="11.00">I</text>
<text xml:space="preserve" text-anchor="middle" x="357.6" y="-104.75" font-family="Helvetica,sans-Serif" font-size="11.00">«Character, owl:NamedIndividual»</text>
<text xml:space="preserve" text-anchor="middle" x="357.6" y="-91.25" font-family="Helvetica,sans-Serif" font-size="11.00">────────</text>
<text xml:space="preserve" text-anchor="middle" x="357.6" y="-77.75" font-family="Helvetica,sans-Serif" font-size="11.00">OCEAN traits</text>
<text xml:space="preserve" text-anchor="middle" x="357.6" y="-64.25" font-family="Helvetica,sans-Serif" font-size="11.00">Openness: 46.12</text>
<text xml:space="preserve" text-anchor="middle" x="357.6" y="-50.75" font-family="Helvetica,sans-Serif" font-size="11.00">Conscientiousness: 31.17</text>
<text xml:space="preserve" text-anchor="middle" x="357.6" y="-37.25" font-family="Helvetica,sans-Serif" font-size="11.00">Extraversion: 37.83</text>
<text xml:space="preserve" text-anchor="middle" x="357.6" y="-23.75" font-family="Helvetica,sans-Serif" font-size="11.00">Agreeableness: 44.79</text>
<text xml:space="preserve" text-anchor="middle" x="357.6" y="-10.25" font-family="Helvetica,sans-Serif" font-size="11.00">Neuroticism: 57.17</text>
</g>
<!-- n_f24528832dae0718 -->
<g id="node2" class="node">
<title>n_f24528832dae0718</title>
<path fill="#e8f1fa" stroke="#5b7c99" stroke-width="2.2" d="M193.2,-203.9C193.2,-203.9 12,-203.9 12,-203.9 6,-203.9 0,-197.9 0,-191.9 0,-191.9 0,-80 0,-80 0,-74 6,-68 12,-68 12,-68 193.2,-68 193.2,-68 199.2,-68 205.2,-74 205.2,-80 205.2,-80 205.2,-191.9 205.2,-191.9 205.2,-197.9 199.2,-203.9 193.2,-203.9"/>
<text xml:space="preserve" text-anchor="middle" x="102.6" y="-186.25" font-family="Helvetica,sans-Serif" font-size="11.00">Kgwgk</text>
<text xml:space="preserve" text-anchor="middle" x="102.6" y="-172.75" font-family="Helvetica,sans-Serif" font-size="11.00">«Character, owl:NamedIndividual»</text>
<text xml:space="preserve" text-anchor="middle" x="102.6" y="-159.25" font-family="Helvetica,sans-Serif" font-size="11.00">────────</text>
<text xml:space="preserve" text-anchor="middle" x="102.6" y="-145.75" font-family="Helvetica,sans-Serif" font-size="11.00">OCEAN traits</text>
<text xml:space="preserve" text-anchor="middle" x="102.6" y="-132.25" font-family="Helvetica,sans-Serif" font-size="11.00">Openness: 50.59</text>
<text xml:space="preserve" text-anchor="middle" x="102.6" y="-118.75" font-family="Helvetica,sans-Serif" font-size="11.00">Conscientiousness: 54.14</text>
<text xml:space="preserve" text-anchor="middle" x="102.6" y="-105.25" font-family="Helvetica,sans-Serif" font-size="11.00">Extraversion: 49.38</text>
<text xml:space="preserve" text-anchor="middle" x="102.6" y="-91.75" font-family="Helvetica,sans-Serif" font-size="11.00">Agreeableness: 19.16</text>
<text xml:space="preserve" text-anchor="middle" x="102.6" y="-78.25" font-family="Helvetica,sans-Serif" font-size="11.00">Neuroticism: 41.16</text>
</g>
<!-- n_c405ba160ccb34c6 -->
<g id="node3" class="node">
<title>n_c405ba160ccb34c6</title>
<path fill="#e8f1fa" stroke="#5b7c99" stroke-width="2.2" d="M414.2,-373.9C414.2,-373.9 233,-373.9 233,-373.9 227,-373.9 221,-367.9 221,-361.9 221,-361.9 221,-250 221,-250 221,-244 227,-238 233,-238 233,-238 414.2,-238 414.2,-238 420.2,-238 426.2,-244 426.2,-250 426.2,-250 426.2,-361.9 426.2,-361.9 426.2,-367.9 420.2,-373.9 414.2,-373.9"/>
<text xml:space="preserve" text-anchor="middle" x="323.6" y="-356.25" font-family="Helvetica,sans-Serif" font-size="11.00">you</text>
<text xml:space="preserve" text-anchor="middle" x="323.6" y="-342.75" font-family="Helvetica,sans-Serif" font-size="11.00">«Character, owl:NamedIndividual»</text>
<text xml:space="preserve" text-anchor="middle" x="323.6" y="-329.25" font-family="Helvetica,sans-Serif" font-size="11.00">────────</text>
<text xml:space="preserve" text-anchor="middle" x="323.6" y="-315.75" font-family="Helvetica,sans-Serif" font-size="11.00">OCEAN traits</text>
<text xml:space="preserve" text-anchor="middle" x="323.6" y="-302.25" font-family="Helvetica,sans-Serif" font-size="11.00">Openness: 53.14</text>
<text xml:space="preserve" text-anchor="middle" x="323.6" y="-288.75" font-family="Helvetica,sans-Serif" font-size="11.00">Conscientiousness: 50.11</text>
<text xml:space="preserve" text-anchor="middle" x="323.6" y="-275.25" font-family="Helvetica,sans-Serif" font-size="11.00">Extraversion: 39.8</text>
<text xml:space="preserve" text-anchor="middle" x="323.6" y="-261.75" font-family="Helvetica,sans-Serif" font-size="11.00">Agreeableness: 51.36</text>
<text xml:space="preserve" text-anchor="middle" x="323.6" y="-248.25" font-family="Helvetica,sans-Serif" font-size="11.00">Neuroticism: 14.18</text>
</g>
<!-- legend_ee9946c82d4a -->
<g id="node4" class="node">
<title>legend_ee9946c82d4a</title>
<path fill="#e8f1fa" stroke="#5b7c99" stroke-width="1.35" d="M161.4,-274C161.4,-274 114,-274 114,-274 108,-274 102,-268 102,-262 102,-262 102,-250 102,-250 102,-244 108,-238 114,-238 114,-238 161.4,-238 161.4,-238 167.4,-238 173.4,-244 173.4,-250 173.4,-250 173.4,-262 173.4,-262 173.4,-268 167.4,-274 161.4,-274"/>
<text xml:space="preserve" text-anchor="middle" x="137.7" y="-252.5" font-family="Helvetica,sans-Serif" font-size="10.00">Character (3)</text>
</g>
</g>
</svg>
