<?xml version="1.0" encoding="UTF-8" standalone="no"?>
<!DOCTYPE svg PUBLIC "-//W3C//DTD SVG 1.1//EN"
 "http://www.w3.org/Graphics/SVG/1.1/DTD/svg11.dtd">
<!-- Generated by graphviz version 15.1.0 (20260618.0150)
 -->
<!-- Title: knowledge_graph Pages: 1 -->
<svg width="2099pt" height="1547pt"
 viewBox="0.00 0.00 2099.00 1547.00" xmlns="http://www.w3.org/2000/svg" xmlns:xlink="http://www.w3.org/1999/xlink">
<g id="graph0" class="graph" transform="scale(1 1) rotate(0) translate(25.2 1521.93)">
<title>knowledge_graph</title>
<text xml:space="preserve" text-anchor="middle" x="1024.17" y="-1471.83" font-family="Helvetica,sans-Serif" font-size="22.00">Narrative Knowledge Graph</text>
<!-- n_c06f4aa876cff14e&#45;&gt;n_c37eeca3aef25ad3 -->
<g id="edge2" class="edge">
<title>n_c06f4aa876cff14e&#45;&gt;n_c37eeca3aef25ad3</title>
<path fill="none" stroke="#6b7280" stroke-width="1.05" d="M1439.87,-805.51C1467.89,-728.15 1513.29,-602.83 1542.35,-522.59"/>
<polygon fill="#6b7280" stroke="#6b7280" stroke-width="1.05" points="1544.32,-523.83 1544.4,-516.94 1540.04,-522.28 1544.32,-523.83"/>
<text xml:space="preserve" text-anchor="middle" x="1474.34" y="-662.59" font-family="Helvetica,sans-Serif" font-size="9.00">caresFor</text>
</g>
<!-- n_c06f4aa876cff14e&#45;&gt;n_dbe867ac734bd4ae -->
<g id="edge1" class="edge">
<title>n_c06f4aa876cff14e&#45;&gt;n_dbe867ac734bd4ae</title>
<path fill="none" stroke="#6b7280" stroke-width="1.05" d="M1518.57,-887.53C1609.53,-899.23 1741.51,-916.19 1834.64,-928.16"/>
<polygon fill="#6b7280" stroke="#6b7280" stroke-width="1.05" points="1834.09,-930.38 1840.82,-928.95 1834.67,-925.87 1834.09,-930.38"/>
<text xml:space="preserve" text-anchor="middle" x="1662.39" y="-910.28" font-family="Helvetica,sans-Serif" font-size="9.00">caresFor</text>
</g>
<!-- n_c06f4aa876cff14e&#45;&gt;n_8958b1338d844c8a -->
<g id="edge6" class="edge">
<title>n_c06f4aa876cff14e&#45;&gt;n_8958b1338d844c8a</title>
<path fill="none" stroke="#6b7280" stroke-width="1.05" d="M1311.32,-815.95C1189.31,-747.36 992.62,-636.8 908.07,-589.27"/>
<polygon fill="#6b7280" stroke="#6b7280" stroke-width="1.05" points="909.37,-587.4 902.59,-586.2 907.14,-591.36 909.37,-587.4"/>
<text xml:space="preserve" text-anchor="middle" x="1072.75" y="-696.66" font-family="Helvetica,sans-Serif" font-size="9.00">usesObject</text>
</g>
<!-- n_c06f4aa876cff14e&#45;&gt;n_da1c83d7489fd8f6 -->
<g id="edge3" class="edge">
<title>n_c06f4aa876cff14e&#45;&gt;n_da1c83d7489fd8f6</title>
<path fill="none" stroke="#6b7280" stroke-width="1.05" d="M1418.37,-943.14C1423.17,-1040.36 1431.89,-1217.17 1436.89,-1318.49"/>
<polygon fill="#6b7280" stroke="#6b7280" stroke-width="1.05" points="1434.61,-1318.58 1437.21,-1324.96 1439.16,-1318.36 1434.61,-1318.58"/>
<text xml:space="preserve" text-anchor="middle" x="1409.83" y="-1136.89" font-family="Helvetica,sans-Serif" font-size="9.00">caresFor</text>
</g>
<!-- n_8958b1338d844c8a&#45;&gt;n_9e78ec9f7e9791f3 -->
<g id="edge8" class="edge">
<title>n_8958b1338d844c8a&#45;&gt;n_9e78ec9f7e9791f3</title>
<path fill="none" stroke="#6b7280" stroke-width="1.05" d="M866.7,-547.18C864.17,-464.92 854.2,-141.72 851.24,-45.63"/>
<polygon fill="#6b7280" stroke="#6b7280" stroke-width="1.05" points="853.51,-45.58 851.04,-39.15 848.97,-45.72 853.51,-45.58"/>
<text xml:space="preserve" text-anchor="middle" x="840.1" y="-294.48" font-family="Helvetica,sans-Serif" font-size="9.00">locatedIn</text>
</g>
<!-- n_8958b1338d844c8a&#45;&gt;n_c9b7ae2d98bfcbb4 -->
<g id="edge7" class="edge">
<title>n_8958b1338d844c8a&#45;&gt;n_c9b7ae2d98bfcbb4</title>
<path fill="none" stroke="#6b7280" stroke-width="1.05" d="M815.66,-585.39C738.58,-621.08 591.75,-698.34 489.87,-755.98"/>
<polygon fill="#6b7280" stroke="#6b7280" stroke-width="1.05" points="488.84,-753.95 484.3,-759.13 491.08,-757.91 488.84,-753.95"/>
<text xml:space="preserve" text-anchor="middle" x="614.45" y="-671.89" font-family="Helvetica,sans-Serif" font-size="9.00">corrupts / curses</text>
</g>
<!-- n_c9b7ae2d98bfcbb4&#45;&gt;n_8958b1338d844c8a -->
<g id="edge4" class="edge">
<title>n_c9b7ae2d98bfcbb4&#45;&gt;n_8958b1338d844c8a</title>
<path fill="none" stroke="#6b7280" stroke-width="1.05" d="M483.23,-782.47C595.61,-726.71 768.1,-633.37 837.22,-589.68"/>
<polygon fill="#6b7280" stroke="#6b7280" stroke-width="1.05" points="838.38,-591.64 842.63,-586.21 835.92,-587.81 838.38,-591.64"/>
<text xml:space="preserve" text-anchor="middle" x="653.59" y="-683.49" font-family="Helvetica,sans-Serif" font-size="9.00">usesObject</text>
</g>
<!-- n_c9b7ae2d98bfcbb4&#45;&gt;n_73306bb7e2e10e76 -->
<g id="edge5" class="edge">
<title>n_c9b7ae2d98bfcbb4&#45;&gt;n_73306bb7e2e10e76</title>
<path fill="none" stroke="#6b7280" stroke-width="1.05" d="M327.1,-895.29C262.11,-980.38 154.65,-1121.06 110.95,-1178.27"/>
<polygon fill="#6b7280" stroke="#6b7280" stroke-width="1.05" points="109.29,-1176.7 107.16,-1183.24 112.91,-1179.46 109.29,-1176.7"/>
<text xml:space="preserve" text-anchor="middle" x="188.15" y="-1049.21" font-family="Helvetica,sans-Serif" font-size="9.00">usesObject</text>
</g>
<!-- n_c37eeca3aef25ad3 -->
<g id="node1" class="node">
<title>n_c37eeca3aef25ad3</title>
<path fill="#e8f1fa" stroke="#5b7c99" stroke-width="2.2" d="M1660.49,-514.5C1660.49,-514.5 1479.29,-514.5 1479.29,-514.5 1473.29,-514.5 1467.29,-508.5 1467.29,-502.5 1467.29,-502.5 1467.29,-390.6 1467.29,-390.6 1467.29,-384.6 1473.29,-378.6 1479.29,-378.6 1479.29,-378.6 1660.49,-378.6 1660.49,-378.6 1666.49,-378.6 1672.49,-384.6 1672.49,-390.6 1672.49,-390.6 1672.49,-502.5 1672.49,-502.5 1672.49,-508.5 1666.49,-514.5 1660.49,-514.5"/>
<text xml:space="preserve" text-anchor="middle" x="1569.89" y="-496.85" font-family="Helvetica,sans-Serif" font-size="11.00">Cecil</text>
<text xml:space="preserve" text-anchor="middle" x="1569.89" y="-483.35" font-family="Helvetica,sans-Serif" font-size="11.00">«Character, owl:NamedIndividual»</text>
<text xml:space="preserve" text-anchor="middle" x="1569.89" y="-469.85" font-family="Helvetica,sans-Serif" font-size="11.00">────────</text>
<text xml:space="preserve" text-anchor="middle" x="1569.89" y="-456.35" font-family="Helvetica,sans-Serif" font-size="11.00">OCEAN traits</text>
<text xml:space="preserve" text-anchor="middle" x="1569.89" y="-442.85" font-family="Helvetica,sans-Serif" font-size="11.00">Openness: 45.56</text>
<text xml:space="preserve" text-anchor="middle" x="1569.89" y="-429.35" font-family="Helvetica,sans-Serif" font-size="11.00">Conscientiousness: 59.58</text>
<text xml:space="preserve" text-anchor="middle" x="1569.89" y="-415.85" font-family="Helvetica,sans-Serif" font-size="11.00">Extraversion: 57.11</text>
<text xml:space="preserve" text-anchor="middle" x="1569.89" y="-402.35" font-family="Helvetica,sans-Serif" font-size="11.00">Agreeableness: 69.21</text>
<text xml:space="preserve" text-anchor="middle" x="1569.89" y="-388.85" font-family="Helvetica,sans-Serif" font-size="11.00">Neuroticism: 40.65</text>
</g>
<!-- n_9e78ec9f7e9791f3 -->
<g id="node2" class="node">
<title>n_9e78ec9f7e9791f3</title>
<path fill="#eaf6ea" stroke="#5f8d5a" stroke-width="1.35" d="M913.85,-37.08C913.85,-37.08 786.95,-37.08 786.95,-37.08 780.95,-37.08 774.95,-31.08 774.95,-25.08 774.95,-25.08 774.95,-12 774.95,-12 774.95,-6 780.95,0 786.95,0 786.95,0 913.85,0 913.85,0 919.85,0 925.85,-6 925.85,-12 925.85,-12 925.85,-25.08 925.85,-25.08 925.85,-31.08 919.85,-37.08 913.85,-37.08"/>
<text xml:space="preserve" text-anchor="middle" x="850.4" y="-21.59" font-family="Helvetica,sans-Serif" font-size="11.00">his room</text>
<text xml:space="preserve" text-anchor="middle" x="850.4" y="-8.09" font-family="Helvetica,sans-Serif" font-size="11.00">«Site, owl:NamedIndividual»</text>
</g>
<!-- n_c06f4aa876cff14e -->
<g id="node3" class="node">
<title>n_c06f4aa876cff14e</title>
<path fill="#e8f1fa" stroke="#5b7c99" stroke-width="2.2" d="M1505.58,-942.17C1505.58,-942.17 1324.38,-942.17 1324.38,-942.17 1318.38,-942.17 1312.38,-936.17 1312.38,-930.17 1312.38,-930.17 1312.38,-818.27 1312.38,-818.27 1312.38,-812.27 1318.38,-806.27 1324.38,-806.27 1324.38,-806.27 1505.58,-806.27 1505.58,-806.27 1511.58,-806.27 1517.58,-812.27 1517.58,-818.27 1517.58,-818.27 1517.58,-930.17 1517.58,-930.17 1517.58,-936.17 1511.58,-942.17 1505.58,-942.17"/>
<text xml:space="preserve" text-anchor="middle" x="1414.98" y="-924.52" font-family="Helvetica,sans-Serif" font-size="11.00">Mr. Otis</text>
<text xml:space="preserve" text-anchor="middle" x="1414.98" y="-911.02" font-family="Helvetica,sans-Serif" font-size="11.00">«Character, owl:NamedIndividual»</text>
<text xml:space="preserve" text-anchor="middle" x="1414.98" y="-897.52" font-family="Helvetica,sans-Serif" font-size="11.00">────────</text>
<text xml:space="preserve" text-anchor="middle" x="1414.98" y="-884.02" font-family="Helvetica,sans-Serif" font-size="11.00">OCEAN traits</text>
<text xml:space="preserve" text-anchor="middle" x="1414.98" y="-870.52" font-family="Helvetica,sans-Serif" font-size="11.00">Openness: 52.8</text>
<text xml:space="preserve" text-anchor="middle" x="1414.98" y="-857.02" font-family="Helvetica,sans-Serif" font-size="11.00">Conscientiousness: 59.1</text>
<text xml:space="preserve" text-anchor="middle" x="1414.98" y="-843.52" font-family="Helvetica,sans-Serif" font-size="11.00">Extraversion: 54.93</text>
<text xml:space="preserve" text-anchor="middle" x="1414.98" y="-830.02" font-family="Helvetica,sans-Serif" font-size="11.00">Agreeableness: 59.13</text>
<text xml:space="preserve" text-anchor="middle" x="1414.98" y="-816.52" font-family="Helvetica,sans-Serif" font-size="11.00">Neuroticism: 40.62</text>
</g>
<!-- n_bc5b6fd0b9950557 -->
<g id="node4" class="node">
<title>n_bc5b6fd0b9950557</title>
<path fill="#e8f1fa" stroke="#5b7c99" stroke-width="2.2" d="M1329.2,-1271.9C1329.2,-1271.9 1148,-1271.9 1148,-1271.9 1142,-1271.9 1136,-1265.9 1136,-1259.9 1136,-1259.9 1136,-1148 1136,-1148 1136,-1142 1142,-1136 1148,-1136 1148,-1136 1329.2,-1136 1329.2,-1136 1335.2,-1136 1341.2,-1142 1341.2,-1148 1341.2,-1148 1341.2,-1259.9 1341.2,-1259.9 1341.2,-1265.9 1335.2,-1271.9 1329.2,-1271.9"/>
<text xml:space="preserve" text-anchor="middle" x="1238.6" y="-1254.25" font-family="Helvetica,sans-Serif" font-size="11.00">Mrs. Otis</text>
<text xml:space="preserve" text-anchor="middle" x="1238.6" y="-1240.75" font-family="Helvetica,sans-Serif" font-size="11.00">«Character, owl:NamedIndividual»</text>
<text xml:space="preserve" text-anchor="middle" x="1238.6" y="-1227.25" font-family="Helvetica,sans-Serif" font-size="11.00">────────</text>
<text xml:space="preserve" text-anchor="middle" x="1238.6" y="-1213.75" font-family="Helvetica,sans-Serif" font-size="11.00">OCEAN traits</text>
<text xml:space="preserve" text-anchor="middle" x="1238.6" y="-1200.25" font-family="Helvetica,sans-Serif" font-size="11.00">Openness: 52.42</text>
<text xml:space="preserve" text-anchor="middle" x="1238.6" y="-1186.75" font-family="Helvetica,sans-Serif" font-size="11.00">Conscientiousness: 57.76</text>
<text xml:space="preserve" text-anchor="middle" x="1238.6" y="-1173.25" font-family="Helvetica,sans-Serif" font-size="11.00">Extraversion: 57.41</text>
<text xml:space="preserve" text-anchor="middle" x="1238.6" y="-1159.75" font-family="Helvetica,sans-Serif" font-size="11.00">Agreeableness: 64.58</text>
<text xml:space="preserve" text-anchor="middle" x="1238.6" y="-1146.25" font-family="Helvetica,sans-Serif" font-size="11.00">Neuroticism: 60.35</text>
</g>
<!-- n_759b09b25ef07a42 -->
<g id="node5" class="node">
<title>n_759b09b25ef07a42</title>
<path fill="#e8f1fa" stroke="#5b7c99" stroke-width="2.2" d="M1116.2,-987.9C1116.2,-987.9 935,-987.9 935,-987.9 929,-987.9 923,-981.9 923,-975.9 923,-975.9 923,-864 923,-864 923,-858 929,-852 935,-852 935,-852 1116.2,-852 1116.2,-852 1122.2,-852 1128.2,-858 1128.2,-864 1128.2,-864 1128.2,-975.9 1128.2,-975.9 1128.2,-981.9 1122.2,-987.9 1116.2,-987.9"/>
<text xml:space="preserve" text-anchor="middle" x="1025.6" y="-970.25" font-family="Helvetica,sans-Serif" font-size="11.00">Mrs. Umney</text>
<text xml:space="preserve" text-anchor="middle" x="1025.6" y="-956.75" font-family="Helvetica,sans-Serif" font-size="11.00">«Character, owl:NamedIndividual»</text>
<text xml:space="preserve" text-anchor="middle" x="1025.6" y="-943.25" font-family="Helvetica,sans-Serif" font-size="11.00">────────</text>
<text xml:space="preserve" text-anchor="middle" x="1025.6" y="-929.75" font-family="Helvetica,sans-Serif" font-size="11.00">OCEAN traits</text>
<text xml:space="preserve" text-anchor="middle" x="1025.6" y="-916.25" font-family="Helvetica,sans-Serif" font-size="11.00">Openness: 50.63</text>
<text xml:space="preserve" text-anchor="middle" x="1025.6" y="-902.75" font-family="Helvetica,sans-Serif" font-size="11.00">Conscientiousness: 54.79</text>
<text xml:space="preserve" text-anchor="middle" x="1025.6" y="-889.25" font-family="Helvetica,sans-Serif" font-size="11.00">Extraversion: 39.48</text>
<text xml:space="preserve" text-anchor="middle" x="1025.6" y="-875.75" font-family="Helvetica,sans-Serif" font-size="11.00">Agreeableness: 54.08</text>
<text xml:space="preserve" text-anchor="middle" x="1025.6" y="-862.25" font-family="Helvetica,sans-Serif" font-size="11.00">Neuroticism: 60.31</text>
</g>
<!-- n_dbe867ac734bd4ae -->
<g id="node6" class="node">
<title>n_dbe867ac734bd4ae</title>
<path fill="#e8f1fa" stroke="#5b7c99" stroke-width="2.2" d="M2036.33,-1010.39C2036.33,-1010.39 1855.13,-1010.39 1855.13,-1010.39 1849.13,-1010.39 1843.13,-1004.39 1843.13,-998.39 1843.13,-998.39 1843.13,-886.49 1843.13,-886.49 1843.13,-880.49 1849.13,-874.49 1855.13,-874.49 1855.13,-874.49 2036.33,-874.49 2036.33,-874.49 2042.33,-874.49 2048.33,-880.49 2048.33,-886.49 2048.33,-886.49 2048.33,-998.39 2048.33,-998.39 2048.33,-1004.39 2042.33,-1010.39 2036.33,-1010.39"/>
<text xml:space="preserve" text-anchor="middle" x="1945.73" y="-992.74" font-family="Helvetica,sans-Serif" font-size="11.00">the Cantervilles</text>
<text xml:space="preserve" text-anchor="middle" x="1945.73" y="-979.24" font-family="Helvetica,sans-Serif" font-size="11.00">«Character, owl:NamedIndividual»</text>
<text xml:space="preserve" text-anchor="middle" x="1945.73" y="-965.74" font-family="Helvetica,sans-Serif" font-size="11.00">────────</text>
<text xml:space="preserve" text-anchor="middle" x="1945.73" y="-952.24" font-family="Helvetica,sans-Serif" font-size="11.00">OCEAN traits</text>
<text xml:space="preserve" text-anchor="middle" x="1945.73" y="-938.74" font-family="Helvetica,sans-Serif" font-size="11.00">Openness: 47.55</text>
<text xml:space="preserve" text-anchor="middle" x="1945.73" y="-925.24" font-family="Helvetica,sans-Serif" font-size="11.00">Conscientiousness: 60.8</text>
<text xml:space="preserve" text-anchor="middle" x="1945.73" y="-911.74" font-family="Helvetica,sans-Serif" font-size="11.00">Extraversion: 52</text>
<text xml:space="preserve" text-anchor="middle" x="1945.73" y="-898.24" font-family="Helvetica,sans-Serif" font-size="11.00">Agreeableness: 63.2</text>
<text xml:space="preserve" text-anchor="middle" x="1945.73" y="-884.74" font-family="Helvetica,sans-Serif" font-size="11.00">Neuroticism: 48.44</text>
</g>
<!-- n_8958b1338d844c8a -->
<g id="node7" class="node">
<title>n_8958b1338d844c8a</title>
<path fill="#fff3d9" stroke="#b68b2c" stroke-width="1.35" d="M946.87,-584.89C946.87,-584.89 787.72,-584.89 787.72,-584.89 781.72,-584.89 775.72,-578.89 775.72,-572.89 775.72,-572.89 775.72,-559.81 775.72,-559.81 775.72,-553.81 781.72,-547.81 787.72,-547.81 787.72,-547.81 946.87,-547.81 946.87,-547.81 952.87,-547.81 958.87,-553.81 958.87,-559.81 958.87,-559.81 958.87,-572.89 958.87,-572.89 958.87,-578.89 952.87,-584.89 946.87,-584.89"/>
<text xml:space="preserve" text-anchor="middle" x="867.29" y="-569.4" font-family="Helvetica,sans-Serif" font-size="11.00">the ghost</text>
<text xml:space="preserve" text-anchor="middle" x="867.29" y="-555.9" font-family="Helvetica,sans-Serif" font-size="11.00">«Substance, owl:NamedIndividual»</text>
</g>
<!-- n_73306bb7e2e10e76 -->
<g id="node8" class="node">
<title>n_73306bb7e2e10e76</title>
<path fill="#fff3d9" stroke="#b68b2c" stroke-width="1.35" d="M171.15,-1222.18C171.15,-1222.18 12,-1222.18 12,-1222.18 6,-1222.18 0,-1216.18 0,-1210.18 0,-1210.18 0,-1197.1 0,-1197.1 0,-1191.1 6,-1185.1 12,-1185.1 12,-1185.1 171.15,-1185.1 171.15,-1185.1 177.15,-1185.1 183.15,-1191.1 183.15,-1197.1 183.15,-1197.1 183.15,-1210.18 183.15,-1210.18 183.15,-1216.18 177.15,-1222.18 171.15,-1222.18"/>
<text xml:space="preserve" text-anchor="middle" x="91.57" y="-1206.69" font-family="Helvetica,sans-Serif" font-size="11.00">the group</text>
<text xml:space="preserve" text-anchor="middle" x="91.57" y="-1193.19" font-family="Helvetica,sans-Serif" font-size="11.00">«Substance, owl:NamedIndividual»</text>
</g>
<!-- n_da1c83d7489fd8f6 -->
<g id="node9" class="node">
<title>n_da1c83d7489fd8f6</title>
<path fill="#e8f1fa" stroke="#5b7c99" stroke-width="2.2" d="M1531.27,-1463.23C1531.27,-1463.23 1350.07,-1463.23 1350.07,-1463.23 1344.07,-1463.23 1338.07,-1457.23 1338.07,-1451.23 1338.07,-1451.23 1338.07,-1339.33 1338.07,-1339.33 1338.07,-1333.33 1344.07,-1327.33 1350.07,-1327.33 1350.07,-1327.33 1531.27,-1327.33 1531.27,-1327.33 1537.27,-1327.33 1543.27,-1333.33 1543.27,-1339.33 1543.27,-1339.33 1543.27,-1451.23 1543.27,-1451.23 1543.27,-1457.23 1537.27,-1463.23 1531.27,-1463.23"/>
<text xml:space="preserve" text-anchor="middle" x="1440.67" y="-1445.58" font-family="Helvetica,sans-Serif" font-size="11.00">the little Duke</text>
<text xml:space="preserve" text-anchor="middle" x="1440.67" y="-1432.08" font-family="Helvetica,sans-Serif" font-size="11.00">«Character, owl:NamedIndividual»</text>
<text xml:space="preserve" text-anchor="middle" x="1440.67" y="-1418.58" font-family="Helvetica,sans-Serif" font-size="11.00">────────</text>
<text xml:space="preserve" text-anchor="middle" x="1440.67" y="-1405.08" font-family="Helvetica,sans-Serif" font-size="11.00">OCEAN traits</text>
<text xml:space="preserve" text-anchor="middle" x="1440.67" y="-1391.58" font-family="Helvetica,sans-Serif" font-size="11.00">Openness: 46.02</text>
<text xml:space="preserve" text-anchor="middle" x="1440.67" y="-1378.08" font-family="Helvetica,sans-Serif" font-size="11.00">Conscientiousness: 49.43</text>
<text xml:space="preserve" text-anchor="middle" x="1440.67" y="-1364.58" font-family="Helvetica,sans-Serif" font-size="11.00">Extraversion: 61.78</text>
<text xml:space="preserve" text-anchor="middle" x="1440.67" y="-1351.08" font-family="Helvetica,sans-Serif" font-size="11.00">Agreeableness: 68.37</text>
<text xml:space="preserve" text-anchor="middle" x="1440.67" y="-1337.58" font-family="Helvetica,sans-Serif" font-size="11.00">Neuroticism: 70.74</text>
</g>
<!-- n_b7e786414bb017f2 -->
<g id="node10" class="node">
<title>n_b7e786414bb017f2</title>
<path fill="#e8f1fa" stroke="#5b7c99" stroke-width="2.2" d="M1329.2,-632.9C1329.2,-632.9 1148,-632.9 1148,-632.9 1142,-632.9 1136,-626.9 1136,-620.9 1136,-620.9 1136,-509 1136,-509 1136,-503 1142,-497 1148,-497 1148,-497 1329.2,-497 1329.2,-497 1335.2,-497 1341.2,-503 1341.2,-509 1341.2,-509 1341.2,-620.9 1341.2,-620.9 1341.2,-626.9 1335.2,-632.9 1329.2,-632.9"/>
<text xml:space="preserve" text-anchor="middle" x="1238.6" y="-615.25" font-family="Helvetica,sans-Serif" font-size="11.00">the twins</text>
<text xml:space="preserve" text-anchor="middle" x="1238.6" y="-601.75" font-family="Helvetica,sans-Serif" font-size="11.00">«Character, owl:NamedIndividual»</text>
<text xml:space="preserve" text-anchor="middle" x="1238.6" y="-588.25" font-family="Helvetica,sans-Serif" font-size="11.00">────────</text>
<text xml:space="preserve" text-anchor="middle" x="1238.6" y="-574.75" font-family="Helvetica,sans-Serif" font-size="11.00">OCEAN traits</text>
<text xml:space="preserve" text-anchor="middle" x="1238.6" y="-561.25" font-family="Helvetica,sans-Serif" font-size="11.00">Openness: 51.2</text>
<text xml:space="preserve" text-anchor="middle" x="1238.6" y="-547.75" font-family="Helvetica,sans-Serif" font-size="11.00">Conscientiousness: 57.19</text>
<text xml:space="preserve" text-anchor="middle" x="1238.6" y="-534.25" font-family="Helvetica,sans-Serif" font-size="11.00">Extraversion: 62.7</text>
<text xml:space="preserve" text-anchor="middle" x="1238.6" y="-520.75" font-family="Helvetica,sans-Serif" font-size="11.00">Agreeableness: 58.81</text>
<text xml:space="preserve" text-anchor="middle" x="1238.6" y="-507.25" font-family="Helvetica,sans-Serif" font-size="11.00">Neuroticism: 54.25</text>
</g>
<!-- n_c9b7ae2d98bfcbb4 -->
<g id="node11" class="node">
<title>n_c9b7ae2d98bfcbb4</title>
<path fill="#e8f1fa" stroke="#5b7c99" stroke-width="2.2" d="M470.2,-894.52C470.2,-894.52 289,-894.52 289,-894.52 283,-894.52 277,-888.52 277,-882.52 277,-882.52 277,-770.62 277,-770.62 277,-764.62 283,-758.62 289,-758.62 289,-758.62 470.2,-758.62 470.2,-758.62 476.2,-758.62 482.2,-764.62 482.2,-770.62 482.2,-770.62 482.2,-882.52 482.2,-882.52 482.2,-888.52 476.2,-894.52 470.2,-894.52"/>
<text xml:space="preserve" text-anchor="middle" x="379.6" y="-876.87" font-family="Helvetica,sans-Serif" font-size="11.00">Virginia</text>
<text xml:space="preserve" text-anchor="middle" x="379.6" y="-863.37" font-family="Helvetica,sans-Serif" font-size="11.00">«Character, owl:NamedIndividual»</text>
<text xml:space="preserve" text-anchor="middle" x="379.6" y="-849.87" font-family="Helvetica,sans-Serif" font-size="11.00">────────</text>
<text xml:space="preserve" text-anchor="middle" x="379.6" y="-836.37" font-family="Helvetica,sans-Serif" font-size="11.00">OCEAN traits</text>
<text xml:space="preserve" text-anchor="middle" x="379.6" y="-822.87" font-family="Helvetica,sans-Serif" font-size="11.00">Openness: 49.75</text>
<text xml:space="preserve" text-anchor="middle" x="379.6" y="-809.37" font-family="Helvetica,sans-Serif" font-size="11.00">Conscientiousness: 49.97</text>
<text xml:space="preserve" text-anchor="middle" x="379.6" y="-795.87" font-family="Helvetica,sans-Serif" font-size="11.00">Extraversion: 48.47</text>
<text xml:space="preserve" text-anchor="middle" x="379.6" y="-782.37" font-family="Helvetica,sans-Serif" font-size="11.00">Agreeableness: 52.66</text>
<text xml:space="preserve" text-anchor="middle" x="379.6" y="-768.87" font-family="Helvetica,sans-Serif" font-size="11.00">Neuroticism: 57.79</text>
</g>
<!-- legend_ee9946c82d4a -->
<g id="node12" class="node">
<title>legend_ee9946c82d4a</title>
<path fill="#e8f1fa" stroke="#5b7c99" stroke-width="1.35" d="M769.4,-888C769.4,-888 722,-888 722,-888 716,-888 710,-882 710,-876 710,-876 710,-864 710,-864 710,-858 716,-852 722,-852 722,-852 769.4,-852 769.4,-852 775.4,-852 781.4,-858 781.4,-864 781.4,-864 781.4,-876 781.4,-876 781.4,-882 775.4,-888 769.4,-888"/>
<text xml:space="preserve" text-anchor="middle" x="745.7" y="-866.5" font-family="Helvetica,sans-Serif" font-size="10.00">Character (8)</text>
</g>
<!-- legend_5b6825d3c67a -->
<g id="node13" class="node">
<title>legend_5b6825d3c67a</title>
<path fill="#eaf6ea" stroke="#5f8d5a" stroke-width="1.35" d="M752,-462C752,-462 722,-462 722,-462 716,-462 710,-456 710,-450 710,-450 710,-438 710,-438 710,-432 716,-426 722,-426 722,-426 752,-426 752,-426 758,-426 764,-432 764,-438 764,-438 764,-450 764,-450 764,-456 758,-462 752,-462"/>
<text xml:space="preserve" text-anchor="middle" x="737" y="-440.5" font-family="Helvetica,sans-Serif" font-size="10.00">Site (1)</text>
</g>
<!-- legend_8db2d6d07b82 -->
<g id="node14" class="node">
<title>legend_8db2d6d07b82</title>
<path fill="#fff3d9" stroke="#b68b2c" stroke-width="1.35" d="M773.15,-1101C773.15,-1101 722,-1101 722,-1101 716,-1101 710,-1095 710,-1089 710,-1089 710,-1077 710,-1077 710,-1071 716,-1065 722,-1065 722,-1065 773.15,-1065 773.15,-1065 779.15,-1065 785.15,-1071 785.15,-1077 785.15,-1077 785.15,-1089 785.15,-1089 785.15,-1095 779.15,-1101 773.15,-1101"/>
<text xml:space="preserve" text-anchor="middle" x="747.57" y="-1079.5" font-family="Helvetica,sans-Serif" font-size="10.00">Substance (2)</text>
</g>
</g>
</svg>
